<svg id="visual" viewBox="0 0 900 450" width="900" height="450" xmlns="http://www.w3.org/2000/svg" xmlns:xlink="http://www.w3.org/1999/xlink" version="1.1"><rect x="0" y="0" width="900" height="450" fill="#FCAF3C"></rect><g fill="none" stroke="#001122" stroke-width="1"><path d="M3.2 1.9L3.2 8.3L-3.2 8.3L-3.2 1.9L-8.8 -1.4L-5.6 -7L0 -3.7L5.6 -7L8.8 -1.4Z" transform="translate(675 29)"></path><path d="M1.6 0.9L1.6 4.2L-1.6 4.2L-1.6 0.9L-4.4 -0.7L-2.8 -3.5L0 -1.9L2.8 -3.5L4.4 -0.7Z" transform="translate(714 18)"></path><path d="M1.9 1.1L1.9 4.9L-1.9 4.9L-1.9 1.1L-5.2 -0.8L-3.3 -4.1L0 -2.2L3.3 -4.1L5.2 -0.8Z" transform="translate(512 372)"></path><path d="M2.7 1.6L2.7 7L-2.7 7L-2.7 1.6L-7.4 -1.1L-4.7 -5.8L0 -3.1L4.7 -5.8L7.4 -1.1Z" transform="translate(604 180)"></path><path d="M2.7 1.6L2.7 7L-2.7 7L-2.7 1.6L-7.4 -1.1L-4.7 -5.8L0 -3.1L4.7 -5.8L7.4 -1.1Z" transform="translate(231 190)"></path><path d="M2.7 1.6L2.7 7L-2.7 7L-2.7 1.6L-7.4 -1.1L-4.7 -5.8L0 -3.1L4.7 -5.8L7.4 -1.1Z" transform="translate(408 429)"></path><path d="M1.6 0.9L1.6 4.2L-1.6 4.2L-1.6 0.9L-4.4 -0.7L-2.8 -3.5L0 -1.9L2.8 -3.5L4.4 -0.7Z" transform="translate(478 24)"></path><path d="M1.9 1.1L1.9 4.9L-1.9 4.9L-1.9 1.1L-5.2 -0.8L-3.3 -4.1L0 -2.2L3.3 -4.1L5.2 -0.8Z" transform="translate(887 380)"></path><path d="M1.6 0.9L1.6 4.2L-1.6 4.2L-1.6 0.9L-4.4 -0.7L-2.8 -3.5L0 -1.9L2.8 -3.5L4.4 -0.7Z" transform="translate(883 298)"></path><path d="M1.9 1.1L1.9 4.9L-1.9 4.9L-1.9 1.1L-5.2 -0.8L-3.3 -4.1L0 -2.2L3.3 -4.1L5.2 -0.8Z" transform="translate(65 56)"></path><path d="M2.2 1.2L2.2 5.6L-2.2 5.6L-2.2 1.2L-5.9 -0.9L-3.7 -4.7L0 -2.5L3.7 -4.7L5.9 -0.9Z" transform="translate(377 318)"></path><path d="M2.4 1.4L2.4 6.3L-2.4 6.3L-2.4 1.4L-6.6 -1L-4.2 -5.2L0 -2.8L4.2 -5.2L6.6 -1Z" transform="translate(888 220)"></path><path d="M2.4 1.4L2.4 6.3L-2.4 6.3L-2.4 1.4L-6.6 -1L-4.2 -5.2L0 -2.8L4.2 -5.2L6.6 -1Z" transform="translate(708 447)"></path><path d="M2.7 1.6L2.7 7L-2.7 7L-2.7 1.6L-7.4 -1.1L-4.7 -5.8L0 -3.1L4.7 -5.8L7.4 -1.1Z" transform="translate(339 9)"></path><path d="M1.3 0.8L1.3 3.5L-1.3 3.5L-1.3 0.8L-3.7 -0.6L-2.3 -2.9L0 -1.6L2.3 -2.9L3.7 -0.6Z" transform="translate(596 264)"></path><path d="M1.3 0.8L1.3 3.5L-1.3 3.5L-1.3 0.8L-3.7 -0.6L-2.3 -2.9L0 -1.6L2.3 -2.9L3.7 -0.6Z" transform="translate(76 398)"></path><path d="M2.4 1.4L2.4 6.3L-2.4 6.3L-2.4 1.4L-6.6 -1L-4.2 -5.2L0 -2.8L4.2 -5.2L6.6 -1Z" transform="translate(385 442)"></path><path d="M2.2 1.2L2.2 5.6L-2.2 5.6L-2.2 1.2L-5.9 -0.9L-3.7 -4.7L0 -2.5L3.7 -4.7L5.9 -0.9Z" transform="translate(228 252)"></path><path d="M1.9 1.1L1.9 4.9L-1.9 4.9L-1.9 1.1L-5.2 -0.8L-3.3 -4.1L0 -2.2L3.3 -4.1L5.2 -0.8Z" transform="translate(570 291)"></path><path d="M1.6 0.9L1.6 4.2L-1.6 4.2L-1.6 0.9L-4.4 -0.7L-2.8 -3.5L0 -1.9L2.8 -3.5L4.4 -0.7Z" transform="translate(526 158)"></path><path d="M1.9 1.1L1.9 4.9L-1.9 4.9L-1.9 1.1L-5.2 -0.8L-3.3 -4.1L0 -2.2L3.3 -4.1L5.2 -0.8Z" transform="translate(717 52)"></path><path d="M1.6 0.9L1.6 4.2L-1.6 4.2L-1.6 0.9L-4.4 -0.7L-2.8 -3.5L0 -1.9L2.8 -3.5L4.4 -0.7Z" transform="translate(664 373)"></path><path d="M2.2 1.2L2.2 5.6L-2.2 5.6L-2.2 1.2L-5.9 -0.9L-3.7 -4.7L0 -2.5L3.7 -4.7L5.9 -0.9Z" transform="translate(45 213)"></path><path d="M2.2 1.2L2.2 5.6L-2.2 5.6L-2.2 1.2L-5.9 -0.9L-3.7 -4.7L0 -2.5L3.7 -4.7L5.9 -0.9Z" transform="translate(501 327)"></path><path d="M2.7 1.6L2.7 7L-2.7 7L-2.7 1.6L-7.4 -1.1L-4.7 -5.8L0 -3.1L4.7 -5.8L7.4 -1.1Z" transform="translate(789 26)"></path><path d="M1.9 1.1L1.9 4.9L-1.9 4.9L-1.9 1.1L-5.2 -0.8L-3.3 -4.1L0 -2.2L3.3 -4.1L5.2 -0.8Z" transform="translate(860 231)"></path><path d="M2.2 1.2L2.2 5.6L-2.2 5.6L-2.2 1.2L-5.9 -0.9L-3.7 -4.7L0 -2.5L3.7 -4.7L5.9 -0.9Z" transform="translate(843 182)"></path><path d="M2.4 1.4L2.4 6.3L-2.4 6.3L-2.4 1.4L-6.6 -1L-4.2 -5.2L0 -2.8L4.2 -5.2L6.6 -1Z" transform="translate(62 374)"></path><path d="M2.2 1.2L2.2 5.6L-2.2 5.6L-2.2 1.2L-5.9 -0.9L-3.7 -4.7L0 -2.5L3.7 -4.7L5.9 -0.9Z" transform="translate(32 166)"></path><path d="M1.9 1.1L1.9 4.9L-1.9 4.9L-1.9 1.1L-5.2 -0.8L-3.3 -4.1L0 -2.2L3.3 -4.1L5.2 -0.8Z" transform="translate(5 216)"></path><path d="M1.6 0.9L1.6 4.2L-1.6 4.2L-1.6 0.9L-4.4 -0.7L-2.8 -3.5L0 -1.9L2.8 -3.5L4.4 -0.7Z" transform="translate(364 149)"></path><path d="M1.9 1.1L1.9 4.9L-1.9 4.9L-1.9 1.1L-5.2 -0.8L-3.3 -4.1L0 -2.2L3.3 -4.1L5.2 -0.8Z" transform="translate(454 233)"></path><path d="M1.6 0.9L1.6 4.2L-1.6 4.2L-1.6 0.9L-4.4 -0.7L-2.8 -3.5L0 -1.9L2.8 -3.5L4.4 -0.7Z" transform="translate(432 161)"></path><path d="M1.3 0.8L1.3 3.5L-1.3 3.5L-1.3 0.8L-3.7 -0.6L-2.3 -2.9L0 -1.6L2.3 -2.9L3.7 -0.6Z" transform="translate(717 315)"></path><path d="M1.9 1.1L1.9 4.9L-1.9 4.9L-1.9 1.1L-5.2 -0.8L-3.3 -4.1L0 -2.2L3.3 -4.1L5.2 -0.8Z" transform="translate(863 417)"></path><path d="M2.4 1.4L2.4 6.3L-2.4 6.3L-2.4 1.4L-6.6 -1L-4.2 -5.2L0 -2.8L4.2 -5.2L6.6 -1Z" transform="translate(115 55)"></path><path d="M1.3 0.8L1.3 3.5L-1.3 3.5L-1.3 0.8L-3.7 -0.6L-2.3 -2.9L0 -1.6L2.3 -2.9L3.7 -0.6Z" transform="translate(741 138)"></path><path d="M1.9 1.1L1.9 4.9L-1.9 4.9L-1.9 1.1L-5.2 -0.8L-3.3 -4.1L0 -2.2L3.3 -4.1L5.2 -0.8Z" transform="translate(828 221)"></path><path d="M1.3 0.8L1.3 3.5L-1.3 3.5L-1.3 0.8L-3.7 -0.6L-2.3 -2.9L0 -1.6L2.3 -2.9L3.7 -0.6Z" transform="translate(203 204)"></path><path d="M2.4 1.4L2.4 6.3L-2.4 6.3L-2.4 1.4L-6.6 -1L-4.2 -5.2L0 -2.8L4.2 -5.2L6.6 -1Z" transform="translate(445 329)"></path><path d="M2.2 1.2L2.2 5.6L-2.2 5.6L-2.2 1.2L-5.9 -0.9L-3.7 -4.7L0 -2.5L3.7 -4.7L5.9 -0.9Z" transform="translate(335 436)"></path><path d="M2.2 1.2L2.2 5.6L-2.2 5.6L-2.2 1.2L-5.9 -0.9L-3.7 -4.7L0 -2.5L3.7 -4.7L5.9 -0.9Z" transform="translate(211 400)"></path><path d="M1.9 1.1L1.9 4.9L-1.9 4.9L-1.9 1.1L-5.2 -0.8L-3.3 -4.1L0 -2.2L3.3 -4.1L5.2 -0.8Z" transform="translate(802 322)"></path><path d="M1.3 0.8L1.3 3.5L-1.3 3.5L-1.3 0.8L-3.7 -0.6L-2.3 -2.9L0 -1.6L2.3 -2.9L3.7 -0.6Z" transform="translate(299 126)"></path><path d="M1.3 0.8L1.3 3.5L-1.3 3.5L-1.3 0.8L-3.7 -0.6L-2.3 -2.9L0 -1.6L2.3 -2.9L3.7 -0.6Z" transform="translate(319 407)"></path><path d="M2.4 1.4L2.4 6.3L-2.4 6.3L-2.4 1.4L-6.6 -1L-4.2 -5.2L0 -2.8L4.2 -5.2L6.6 -1Z" transform="translate(179 312)"></path><path d="M2.2 1.2L2.2 5.6L-2.2 5.6L-2.2 1.2L-5.9 -0.9L-3.7 -4.7L0 -2.5L3.7 -4.7L5.9 -0.9Z" transform="translate(154 383)"></path><path d="M2.2 1.2L2.2 5.6L-2.2 5.6L-2.2 1.2L-5.9 -0.9L-3.7 -4.7L0 -2.5L3.7 -4.7L5.9 -0.9Z" transform="translate(303 51)"></path><path d="M2.7 1.6L2.7 7L-2.7 7L-2.7 1.6L-7.4 -1.1L-4.7 -5.8L0 -3.1L4.7 -5.8L7.4 -1.1Z" transform="translate(481 415)"></path><path d="M1.9 1.1L1.9 4.9L-1.9 4.9L-1.9 1.1L-5.2 -0.8L-3.3 -4.1L0 -2.2L3.3 -4.1L5.2 -0.8Z" transform="translate(779 221)"></path><path d="M1.3 0.8L1.3 3.5L-1.3 3.5L-1.3 0.8L-3.7 -0.6L-2.3 -2.9L0 -1.6L2.3 -2.9L3.7 -0.6Z" transform="translate(426 280)"></path><path d="M1.9 1.1L1.9 4.9L-1.9 4.9L-1.9 1.1L-5.2 -0.8L-3.3 -4.1L0 -2.2L3.3 -4.1L5.2 -0.8Z" transform="translate(228 32)"></path><path d="M2.2 1.2L2.2 5.6L-2.2 5.6L-2.2 1.2L-5.9 -0.9L-3.7 -4.7L0 -2.5L3.7 -4.7L5.9 -0.9Z" transform="translate(523 7)"></path><path d="M1.6 0.9L1.6 4.2L-1.6 4.2L-1.6 0.9L-4.4 -0.7L-2.8 -3.5L0 -1.9L2.8 -3.5L4.4 -0.7Z" transform="translate(507 263)"></path><path d="M2.7 1.6L2.7 7L-2.7 7L-2.7 1.6L-7.4 -1.1L-4.7 -5.8L0 -3.1L4.7 -5.8L7.4 -1.1Z" transform="translate(680 402)"></path><path d="M2.4 1.4L2.4 6.3L-2.4 6.3L-2.4 1.4L-6.6 -1L-4.2 -5.2L0 -2.8L4.2 -5.2L6.6 -1Z" transform="translate(579 53)"></path><path d="M1.3 0.8L1.3 3.5L-1.3 3.5L-1.3 0.8L-3.7 -0.6L-2.3 -2.9L0 -1.6L2.3 -2.9L3.7 -0.6Z" transform="translate(823 431)"></path><path d="M1.3 0.8L1.3 3.5L-1.3 3.5L-1.3 0.8L-3.7 -0.6L-2.3 -2.9L0 -1.6L2.3 -2.9L3.7 -0.6Z" transform="translate(241 10)"></path><path d="M2.2 1.2L2.2 5.6L-2.2 5.6L-2.2 1.2L-5.9 -0.9L-3.7 -4.7L0 -2.5L3.7 -4.7L5.9 -0.9Z" transform="translate(102 120)"></path><path d="M1.6 0.9L1.6 4.2L-1.6 4.2L-1.6 0.9L-4.4 -0.7L-2.8 -3.5L0 -1.9L2.8 -3.5L4.4 -0.7Z" transform="translate(266 218)"></path><path d="M2.7 1.6L2.7 7L-2.7 7L-2.7 1.6L-7.4 -1.1L-4.7 -5.8L0 -3.1L4.7 -5.8L7.4 -1.1Z" transform="translate(485 389)"></path><path d="M1.6 0.9L1.6 4.2L-1.6 4.2L-1.6 0.9L-4.4 -0.7L-2.8 -3.5L0 -1.9L2.8 -3.5L4.4 -0.7Z" transform="translate(331 167)"></path><path d="M2.4 1.4L2.4 6.3L-2.4 6.3L-2.4 1.4L-6.6 -1L-4.2 -5.2L0 -2.8L4.2 -5.2L6.6 -1Z" transform="translate(595 81)"></path><path d="M1.3 0.8L1.3 3.5L-1.3 3.5L-1.3 0.8L-3.7 -0.6L-2.3 -2.9L0 -1.6L2.3 -2.9L3.7 -0.6Z" transform="translate(235 116)"></path><path d="M2.2 1.2L2.2 5.6L-2.2 5.6L-2.2 1.2L-5.9 -0.9L-3.7 -4.7L0 -2.5L3.7 -4.7L5.9 -0.9Z" transform="translate(187 290)"></path><path d="M1.3 0.8L1.3 3.5L-1.3 3.5L-1.3 0.8L-3.7 -0.6L-2.3 -2.9L0 -1.6L2.3 -2.9L3.7 -0.6Z" transform="translate(661 222)"></path><path d="M1.9 1.1L1.9 4.9L-1.9 4.9L-1.9 1.1L-5.2 -0.8L-3.3 -4.1L0 -2.2L3.3 -4.1L5.2 -0.8Z" transform="translate(16 90)"></path><path d="M2.2 1.2L2.2 5.6L-2.2 5.6L-2.2 1.2L-5.9 -0.9L-3.7 -4.7L0 -2.5L3.7 -4.7L5.9 -0.9Z" transform="translate(350 297)"></path><path d="M1.9 1.1L1.9 4.9L-1.9 4.9L-1.9 1.1L-5.2 -0.8L-3.3 -4.1L0 -2.2L3.3 -4.1L5.2 -0.8Z" transform="translate(36 255)"></path><path d="M1.9 1.1L1.9 4.9L-1.9 4.9L-1.9 1.1L-5.2 -0.8L-3.3 -4.1L0 -2.2L3.3 -4.1L5.2 -0.8Z" transform="translate(694 349)"></path><path d="M1.3 0.8L1.3 3.5L-1.3 3.5L-1.3 0.8L-3.7 -0.6L-2.3 -2.9L0 -1.6L2.3 -2.9L3.7 -0.6Z" transform="translate(382 75)"></path><path d="M2.2 1.2L2.2 5.6L-2.2 5.6L-2.2 1.2L-5.9 -0.9L-3.7 -4.7L0 -2.5L3.7 -4.7L5.9 -0.9Z" transform="translate(846 381)"></path><path d="M2.4 1.4L2.4 6.3L-2.4 6.3L-2.4 1.4L-6.6 -1L-4.2 -5.2L0 -2.8L4.2 -5.2L6.6 -1Z" transform="translate(152 173)"></path><path d="M1.3 0.8L1.3 3.5L-1.3 3.5L-1.3 0.8L-3.7 -0.6L-2.3 -2.9L0 -1.6L2.3 -2.9L3.7 -0.6Z" transform="translate(154 216)"></path><path d="M1.9 1.1L1.9 4.9L-1.9 4.9L-1.9 1.1L-5.2 -0.8L-3.3 -4.1L0 -2.2L3.3 -4.1L5.2 -0.8Z" transform="translate(689 376)"></path><path d="M2.7 1.6L2.7 7L-2.7 7L-2.7 1.6L-7.4 -1.1L-4.7 -5.8L0 -3.1L4.7 -5.8L7.4 -1.1Z" transform="translate(646 261)"></path><path d="M2.4 1.4L2.4 6.3L-2.4 6.3L-2.4 1.4L-6.6 -1L-4.2 -5.2L0 -2.8L4.2 -5.2L6.6 -1Z" transform="translate(814 282)"></path><path d="M1.9 1.1L1.9 4.9L-1.9 4.9L-1.9 1.1L-5.2 -0.8L-3.3 -4.1L0 -2.2L3.3 -4.1L5.2 -0.8Z" transform="translate(878 442)"></path><path d="M2.4 1.4L2.4 6.3L-2.4 6.3L-2.4 1.4L-6.6 -1L-4.2 -5.2L0 -2.8L4.2 -5.2L6.6 -1Z" transform="translate(431 189)"></path><path d="M1.3 0.8L1.3 3.5L-1.3 3.5L-1.3 0.8L-3.7 -0.6L-2.3 -2.9L0 -1.6L2.3 -2.9L3.7 -0.6Z" transform="translate(145 145)"></path><path d="M2.2 1.2L2.2 5.6L-2.2 5.6L-2.2 1.2L-5.9 -0.9L-3.7 -4.7L0 -2.5L3.7 -4.7L5.9 -0.9Z" transform="translate(671 121)"></path><path d="M2.2 1.2L2.2 5.6L-2.2 5.6L-2.2 1.2L-5.9 -0.9L-3.7 -4.7L0 -2.5L3.7 -4.7L5.9 -0.9Z" transform="translate(258 298)"></path><path d="M2.7 1.6L2.7 7L-2.7 7L-2.7 1.6L-7.4 -1.1L-4.7 -5.8L0 -3.1L4.7 -5.8L7.4 -1.1Z" transform="translate(518 295)"></path><path d="M2.2 1.2L2.2 5.6L-2.2 5.6L-2.2 1.2L-5.9 -0.9L-3.7 -4.7L0 -2.5L3.7 -4.7L5.9 -0.9Z" transform="translate(841 405)"></path><path d="M1.9 1.1L1.9 4.9L-1.9 4.9L-1.9 1.1L-5.2 -0.8L-3.3 -4.1L0 -2.2L3.3 -4.1L5.2 -0.8Z" transform="translate(296 14)"></path><path d="M1.9 1.1L1.9 4.9L-1.9 4.9L-1.9 1.1L-5.2 -0.8L-3.3 -4.1L0 -2.2L3.3 -4.1L5.2 -0.8Z" transform="translate(137 443)"></path><path d="M2.4 1.4L2.4 6.3L-2.4 6.3L-2.4 1.4L-6.6 -1L-4.2 -5.2L0 -2.8L4.2 -5.2L6.6 -1Z" transform="translate(674 170)"></path><path d="M1.6 0.9L1.6 4.2L-1.6 4.2L-1.6 0.9L-4.4 -0.7L-2.8 -3.5L0 -1.9L2.8 -3.5L4.4 -0.7Z" transform="translate(343 347)"></path><path d="M2.2 1.2L2.2 5.6L-2.2 5.6L-2.2 1.2L-5.9 -0.9L-3.7 -4.7L0 -2.5L3.7 -4.7L5.9 -0.9Z" transform="translate(651 446)"></path><path d="M2.4 1.4L2.4 6.3L-2.4 6.3L-2.4 1.4L-6.6 -1L-4.2 -5.2L0 -2.8L4.2 -5.2L6.6 -1Z" transform="translate(259 336)"></path><path d="M2.4 1.4L2.4 6.3L-2.4 6.3L-2.4 1.4L-6.6 -1L-4.2 -5.2L0 -2.8L4.2 -5.2L6.6 -1Z" transform="translate(396 135)"></path><path d="M1.3 0.8L1.3 3.5L-1.3 3.5L-1.3 0.8L-3.7 -0.6L-2.3 -2.9L0 -1.6L2.3 -2.9L3.7 -0.6Z" transform="translate(447 37)"></path><path d="M2.4 1.4L2.4 6.3L-2.4 6.3L-2.4 1.4L-6.6 -1L-4.2 -5.2L0 -2.8L4.2 -5.2L6.6 -1Z" transform="translate(553 87)"></path><path d="M1.3 0.8L1.3 3.5L-1.3 3.5L-1.3 0.8L-3.7 -0.6L-2.3 -2.9L0 -1.6L2.3 -2.9L3.7 -0.6Z" transform="translate(339 391)"></path><path d="M2.7 1.6L2.7 7L-2.7 7L-2.7 1.6L-7.4 -1.1L-4.7 -5.8L0 -3.1L4.7 -5.8L7.4 -1.1Z" transform="translate(552 180)"></path><path d="M1.6 0.9L1.6 4.2L-1.6 4.2L-1.6 0.9L-4.4 -0.7L-2.8 -3.5L0 -1.9L2.8 -3.5L4.4 -0.7Z" transform="translate(407 68)"></path><path d="M1.6 0.9L1.6 4.2L-1.6 4.2L-1.6 0.9L-4.4 -0.7L-2.8 -3.5L0 -1.9L2.8 -3.5L4.4 -0.7Z" transform="translate(67 97)"></path><path d="M1.3 0.8L1.3 3.5L-1.3 3.5L-1.3 0.8L-3.7 -0.6L-2.3 -2.9L0 -1.6L2.3 -2.9L3.7 -0.6Z" transform="translate(559 377)"></path><path d="M2.4 1.4L2.4 6.3L-2.4 6.3L-2.4 1.4L-6.6 -1L-4.2 -5.2L0 -2.8L4.2 -5.2L6.6 -1Z" transform="translate(668 194)"></path><path d="M1.3 0.8L1.3 3.5L-1.3 3.5L-1.3 0.8L-3.7 -0.6L-2.3 -2.9L0 -1.6L2.3 -2.9L3.7 -0.6Z" transform="translate(649 311)"></path><path d="M1.6 0.9L1.6 4.2L-1.6 4.2L-1.6 0.9L-4.4 -0.7L-2.8 -3.5L0 -1.9L2.8 -3.5L4.4 -0.7Z" transform="translate(826 32)"></path><path d="M1.3 0.8L1.3 3.5L-1.3 3.5L-1.3 0.8L-3.7 -0.6L-2.3 -2.9L0 -1.6L2.3 -2.9L3.7 -0.6Z" transform="translate(593 391)"></path><path d="M2.7 1.6L2.7 7L-2.7 7L-2.7 1.6L-7.4 -1.1L-4.7 -5.8L0 -3.1L4.7 -5.8L7.4 -1.1Z" transform="translate(859 47)"></path><path d="M1.3 0.8L1.3 3.5L-1.3 3.5L-1.3 0.8L-3.7 -0.6L-2.3 -2.9L0 -1.6L2.3 -2.9L3.7 -0.6Z" transform="translate(622 220)"></path><path d="M1.6 0.9L1.6 4.2L-1.6 4.2L-1.6 0.9L-4.4 -0.7L-2.8 -3.5L0 -1.9L2.8 -3.5L4.4 -0.7Z" transform="translate(739 66)"></path><path d="M1.6 0.9L1.6 4.2L-1.6 4.2L-1.6 0.9L-4.4 -0.7L-2.8 -3.5L0 -1.9L2.8 -3.5L4.4 -0.7Z" transform="translate(577 429)"></path><path d="M2.4 1.4L2.4 6.3L-2.4 6.3L-2.4 1.4L-6.6 -1L-4.2 -5.2L0 -2.8L4.2 -5.2L6.6 -1Z" transform="translate(578 5)"></path><path d="M2.2 1.2L2.2 5.6L-2.2 5.6L-2.2 1.2L-5.9 -0.9L-3.7 -4.7L0 -2.5L3.7 -4.7L5.9 -0.9Z" transform="translate(252 68)"></path><path d="M2.7 1.6L2.7 7L-2.7 7L-2.7 1.6L-7.4 -1.1L-4.7 -5.8L0 -3.1L4.7 -5.8L7.4 -1.1Z" transform="translate(306 237)"></path><path d="M2.7 1.6L2.7 7L-2.7 7L-2.7 1.6L-7.4 -1.1L-4.7 -5.8L0 -3.1L4.7 -5.8L7.4 -1.1Z" transform="translate(38 353)"></path><path d="M1.6 0.9L1.6 4.2L-1.6 4.2L-1.6 0.9L-4.4 -0.7L-2.8 -3.5L0 -1.9L2.8 -3.5L4.4 -0.7Z" transform="translate(780 448)"></path><path d="M2.7 1.6L2.7 7L-2.7 7L-2.7 1.6L-7.4 -1.1L-4.7 -5.8L0 -3.1L4.7 -5.8L7.4 -1.1Z" transform="translate(749 268)"></path><path d="M1.9 1.1L1.9 4.9L-1.9 4.9L-1.9 1.1L-5.2 -0.8L-3.3 -4.1L0 -2.2L3.3 -4.1L5.2 -0.8Z" transform="translate(445 395)"></path><path d="M2.7 1.6L2.7 7L-2.7 7L-2.7 1.6L-7.4 -1.1L-4.7 -5.8L0 -3.1L4.7 -5.8L7.4 -1.1Z" transform="translate(117 244)"></path><path d="M1.3 0.8L1.3 3.5L-1.3 3.5L-1.3 0.8L-3.7 -0.6L-2.3 -2.9L0 -1.6L2.3 -2.9L3.7 -0.6Z" transform="translate(92 59)"></path><path d="M2.2 1.2L2.2 5.6L-2.2 5.6L-2.2 1.2L-5.9 -0.9L-3.7 -4.7L0 -2.5L3.7 -4.7L5.9 -0.9Z" transform="translate(179 28)"></path><path d="M1.3 0.8L1.3 3.5L-1.3 3.5L-1.3 0.8L-3.7 -0.6L-2.3 -2.9L0 -1.6L2.3 -2.9L3.7 -0.6Z" transform="translate(408 176)"></path><path d="M1.9 1.1L1.9 4.9L-1.9 4.9L-1.9 1.1L-5.2 -0.8L-3.3 -4.1L0 -2.2L3.3 -4.1L5.2 -0.8Z" transform="translate(360 111)"></path><path d="M1.3 0.8L1.3 3.5L-1.3 3.5L-1.3 0.8L-3.7 -0.6L-2.3 -2.9L0 -1.6L2.3 -2.9L3.7 -0.6Z" transform="translate(760 93)"></path><path d="M1.9 1.1L1.9 4.9L-1.9 4.9L-1.9 1.1L-5.2 -0.8L-3.3 -4.1L0 -2.2L3.3 -4.1L5.2 -0.8Z" transform="translate(784 363)"></path><path d="M2.4 1.4L2.4 6.3L-2.4 6.3L-2.4 1.4L-6.6 -1L-4.2 -5.2L0 -2.8L4.2 -5.2L6.6 -1Z" transform="translate(89 279)"></path><path d="M1.3 0.8L1.3 3.5L-1.3 3.5L-1.3 0.8L-3.7 -0.6L-2.3 -2.9L0 -1.6L2.3 -2.9L3.7 -0.6Z" transform="translate(345 324)"></path><path d="M2.7 1.6L2.7 7L-2.7 7L-2.7 1.6L-7.4 -1.1L-4.7 -5.8L0 -3.1L4.7 -5.8L7.4 -1.1Z" transform="translate(350 244)"></path><path d="M1.3 0.8L1.3 3.5L-1.3 3.5L-1.3 0.8L-3.7 -0.6L-2.3 -2.9L0 -1.6L2.3 -2.9L3.7 -0.6Z" transform="translate(604 133)"></path><path d="M2.2 1.2L2.2 5.6L-2.2 5.6L-2.2 1.2L-5.9 -0.9L-3.7 -4.7L0 -2.5L3.7 -4.7L5.9 -0.9Z" transform="translate(889 17)"></path><path d="M1.6 0.9L1.6 4.2L-1.6 4.2L-1.6 0.9L-4.4 -0.7L-2.8 -3.5L0 -1.9L2.8 -3.5L4.4 -0.7Z" transform="translate(555 21)"></path><path d="M2.4 1.4L2.4 6.3L-2.4 6.3L-2.4 1.4L-6.6 -1L-4.2 -5.2L0 -2.8L4.2 -5.2L6.6 -1Z" transform="translate(768 51)"></path><path d="M2.4 1.4L2.4 6.3L-2.4 6.3L-2.4 1.4L-6.6 -1L-4.2 -5.2L0 -2.8L4.2 -5.2L6.6 -1Z" transform="translate(38 310)"></path><path d="M2.7 1.6L2.7 7L-2.7 7L-2.7 1.6L-7.4 -1.1L-4.7 -5.8L0 -3.1L4.7 -5.8L7.4 -1.1Z" transform="translate(43 73)"></path><path d="M1.6 0.9L1.6 4.2L-1.6 4.2L-1.6 0.9L-4.4 -0.7L-2.8 -3.5L0 -1.9L2.8 -3.5L4.4 -0.7Z" transform="translate(109 425)"></path><path d="M1.3 0.8L1.3 3.5L-1.3 3.5L-1.3 0.8L-3.7 -0.6L-2.3 -2.9L0 -1.6L2.3 -2.9L3.7 -0.6Z" transform="translate(569 346)"></path><path d="M2.4 1.4L2.4 6.3L-2.4 6.3L-2.4 1.4L-6.6 -1L-4.2 -5.2L0 -2.8L4.2 -5.2L6.6 -1Z" transform="translate(810 49)"></path><path d="M1.6 0.9L1.6 4.2L-1.6 4.2L-1.6 0.9L-4.4 -0.7L-2.8 -3.5L0 -1.9L2.8 -3.5L4.4 -0.7Z" transform="translate(82 446)"></path><path d="M2.2 1.2L2.2 5.6L-2.2 5.6L-2.2 1.2L-5.9 -0.9L-3.7 -4.7L0 -2.5L3.7 -4.7L5.9 -0.9Z" transform="translate(716 78)"></path><path d="M1.9 1.1L1.9 4.9L-1.9 4.9L-1.9 1.1L-5.2 -0.8L-3.3 -4.1L0 -2.2L3.3 -4.1L5.2 -0.8Z" transform="translate(10 436)"></path><path d="M2.2 1.2L2.2 5.6L-2.2 5.6L-2.2 1.2L-5.9 -0.9L-3.7 -4.7L0 -2.5L3.7 -4.7L5.9 -0.9Z" transform="translate(786 166)"></path><path d="M1.9 1.1L1.9 4.9L-1.9 4.9L-1.9 1.1L-5.2 -0.8L-3.3 -4.1L0 -2.2L3.3 -4.1L5.2 -0.8Z" transform="translate(213 227)"></path><path d="M2.4 1.4L2.4 6.3L-2.4 6.3L-2.4 1.4L-6.6 -1L-4.2 -5.2L0 -2.8L4.2 -5.2L6.6 -1Z" transform="translate(395 37)"></path><path d="M1.9 1.1L1.9 4.9L-1.9 4.9L-1.9 1.1L-5.2 -0.8L-3.3 -4.1L0 -2.2L3.3 -4.1L5.2 -0.8Z" transform="translate(423 376)"></path><path d="M2.2 1.2L2.2 5.6L-2.2 5.6L-2.2 1.2L-5.9 -0.9L-3.7 -4.7L0 -2.5L3.7 -4.7L5.9 -0.9Z" transform="translate(224 380)"></path><path d="M1.3 0.8L1.3 3.5L-1.3 3.5L-1.3 0.8L-3.7 -0.6L-2.3 -2.9L0 -1.6L2.3 -2.9L3.7 -0.6Z" transform="translate(640 345)"></path><path d="M2.4 1.4L2.4 6.3L-2.4 6.3L-2.4 1.4L-6.6 -1L-4.2 -5.2L0 -2.8L4.2 -5.2L6.6 -1Z" transform="translate(31 420)"></path><path d="M1.6 0.9L1.6 4.2L-1.6 4.2L-1.6 0.9L-4.4 -0.7L-2.8 -3.5L0 -1.9L2.8 -3.5L4.4 -0.7Z" transform="translate(678 282)"></path><path d="M2.4 1.4L2.4 6.3L-2.4 6.3L-2.4 1.4L-6.6 -1L-4.2 -5.2L0 -2.8L4.2 -5.2L6.6 -1Z" transform="translate(494 207)"></path><path d="M2.2 1.2L2.2 5.6L-2.2 5.6L-2.2 1.2L-5.9 -0.9L-3.7 -4.7L0 -2.5L3.7 -4.7L5.9 -0.9Z" transform="translate(705 140)"></path><path d="M2.7 1.6L2.7 7L-2.7 7L-2.7 1.6L-7.4 -1.1L-4.7 -5.8L0 -3.1L4.7 -5.8L7.4 -1.1Z" transform="translate(400 309)"></path><path d="M1.3 0.8L1.3 3.5L-1.3 3.5L-1.3 0.8L-3.7 -0.6L-2.3 -2.9L0 -1.6L2.3 -2.9L3.7 -0.6Z" transform="translate(757 228)"></path><path d="M1.6 0.9L1.6 4.2L-1.6 4.2L-1.6 0.9L-4.4 -0.7L-2.8 -3.5L0 -1.9L2.8 -3.5L4.4 -0.7Z" transform="translate(869 192)"></path><path d="M2.2 1.2L2.2 5.6L-2.2 5.6L-2.2 1.2L-5.9 -0.9L-3.7 -4.7L0 -2.5L3.7 -4.7L5.9 -0.9Z" transform="translate(616 293)"></path><path d="M2.4 1.4L2.4 6.3L-2.4 6.3L-2.4 1.4L-6.6 -1L-4.2 -5.2L0 -2.8L4.2 -5.2L6.6 -1Z" transform="translate(530 55)"></path><path d="M1.3 0.8L1.3 3.5L-1.3 3.5L-1.3 0.8L-3.7 -0.6L-2.3 -2.9L0 -1.6L2.3 -2.9L3.7 -0.6Z" transform="translate(897 163)"></path><path d="M2.7 1.6L2.7 7L-2.7 7L-2.7 1.6L-7.4 -1.1L-4.7 -5.8L0 -3.1L4.7 -5.8L7.4 -1.1Z" transform="translate(450 259)"></path><path d="M1.6 0.9L1.6 4.2L-1.6 4.2L-1.6 0.9L-4.4 -0.7L-2.8 -3.5L0 -1.9L2.8 -3.5L4.4 -0.7Z" transform="translate(738 351)"></path><path d="M1.6 0.9L1.6 4.2L-1.6 4.2L-1.6 0.9L-4.4 -0.7L-2.8 -3.5L0 -1.9L2.8 -3.5L4.4 -0.7Z" transform="translate(30 397)"></path><path d="M2.2 1.2L2.2 5.6L-2.2 5.6L-2.2 1.2L-5.9 -0.9L-3.7 -4.7L0 -2.5L3.7 -4.7L5.9 -0.9Z" transform="translate(751 185)"></path><path d="M2.4 1.4L2.4 6.3L-2.4 6.3L-2.4 1.4L-6.6 -1L-4.2 -5.2L0 -2.8L4.2 -5.2L6.6 -1Z" transform="translate(68 352)"></path><path d="M2.2 1.2L2.2 5.6L-2.2 5.6L-2.2 1.2L-5.9 -0.9L-3.7 -4.7L0 -2.5L3.7 -4.7L5.9 -0.9Z" transform="translate(537 242)"></path><path d="M1.9 1.1L1.9 4.9L-1.9 4.9L-1.9 1.1L-5.2 -0.8L-3.3 -4.1L0 -2.2L3.3 -4.1L5.2 -0.8Z" transform="translate(863 165)"></path><path d="M2.2 1.2L2.2 5.6L-2.2 5.6L-2.2 1.2L-5.9 -0.9L-3.7 -4.7L0 -2.5L3.7 -4.7L5.9 -0.9Z" transform="translate(633 197)"></path><path d="M1.3 0.8L1.3 3.5L-1.3 3.5L-1.3 0.8L-3.7 -0.6L-2.3 -2.9L0 -1.6L2.3 -2.9L3.7 -0.6Z" transform="translate(28 137)"></path><path d="M1.6 0.9L1.6 4.2L-1.6 4.2L-1.6 0.9L-4.4 -0.7L-2.8 -3.5L0 -1.9L2.8 -3.5L4.4 -0.7Z" transform="translate(57 138)"></path><path d="M2.7 1.6L2.7 7L-2.7 7L-2.7 1.6L-7.4 -1.1L-4.7 -5.8L0 -3.1L4.7 -5.8L7.4 -1.1Z" transform="translate(485 86)"></path><path d="M2.2 1.2L2.2 5.6L-2.2 5.6L-2.2 1.2L-5.9 -0.9L-3.7 -4.7L0 -2.5L3.7 -4.7L5.9 -0.9Z" transform="translate(359 427)"></path><path d="M1.9 1.1L1.9 4.9L-1.9 4.9L-1.9 1.1L-5.2 -0.8L-3.3 -4.1L0 -2.2L3.3 -4.1L5.2 -0.8Z" transform="translate(575 101)"></path><path d="M1.3 0.8L1.3 3.5L-1.3 3.5L-1.3 0.8L-3.7 -0.6L-2.3 -2.9L0 -1.6L2.3 -2.9L3.7 -0.6Z" transform="translate(832 339)"></path><path d="M1.6 0.9L1.6 4.2L-1.6 4.2L-1.6 0.9L-4.4 -0.7L-2.8 -3.5L0 -1.9L2.8 -3.5L4.4 -0.7Z" transform="translate(180 353)"></path><path d="M1.9 1.1L1.9 4.9L-1.9 4.9L-1.9 1.1L-5.2 -0.8L-3.3 -4.1L0 -2.2L3.3 -4.1L5.2 -0.8Z" transform="translate(77 11)"></path><path d="M2.7 1.6L2.7 7L-2.7 7L-2.7 1.6L-7.4 -1.1L-4.7 -5.8L0 -3.1L4.7 -5.8L7.4 -1.1Z" transform="translate(113 205)"></path><path d="M1.3 0.8L1.3 3.5L-1.3 3.5L-1.3 0.8L-3.7 -0.6L-2.3 -2.9L0 -1.6L2.3 -2.9L3.7 -0.6Z" transform="translate(801 262)"></path><path d="M2.7 1.6L2.7 7L-2.7 7L-2.7 1.6L-7.4 -1.1L-4.7 -5.8L0 -3.1L4.7 -5.8L7.4 -1.1Z" transform="translate(897 119)"></path><path d="M1.3 0.8L1.3 3.5L-1.3 3.5L-1.3 0.8L-3.7 -0.6L-2.3 -2.9L0 -1.6L2.3 -2.9L3.7 -0.6Z" transform="translate(201 147)"></path><path d="M1.3 0.8L1.3 3.5L-1.3 3.5L-1.3 0.8L-3.7 -0.6L-2.3 -2.9L0 -1.6L2.3 -2.9L3.7 -0.6Z" transform="translate(473 250)"></path><path d="M1.3 0.8L1.3 3.5L-1.3 3.5L-1.3 0.8L-3.7 -0.6L-2.3 -2.9L0 -1.6L2.3 -2.9L3.7 -0.6Z" transform="translate(471 446)"></path><path d="M1.6 0.9L1.6 4.2L-1.6 4.2L-1.6 0.9L-4.4 -0.7L-2.8 -3.5L0 -1.9L2.8 -3.5L4.4 -0.7Z" transform="translate(187 392)"></path><path d="M1.3 0.8L1.3 3.5L-1.3 3.5L-1.3 0.8L-3.7 -0.6L-2.3 -2.9L0 -1.6L2.3 -2.9L3.7 -0.6Z" transform="translate(322 200)"></path><path d="M2.7 1.6L2.7 7L-2.7 7L-2.7 1.6L-7.4 -1.1L-4.7 -5.8L0 -3.1L4.7 -5.8L7.4 -1.1Z" transform="translate(384 209)"></path><path d="M2.7 1.6L2.7 7L-2.7 7L-2.7 1.6L-7.4 -1.1L-4.7 -5.8L0 -3.1L4.7 -5.8L7.4 -1.1Z" transform="translate(150 242)"></path><path d="M1.3 0.8L1.3 3.5L-1.3 3.5L-1.3 0.8L-3.7 -0.6L-2.3 -2.9L0 -1.6L2.3 -2.9L3.7 -0.6Z" transform="translate(142 75)"></path><path d="M1.6 0.9L1.6 4.2L-1.6 4.2L-1.6 0.9L-4.4 -0.7L-2.8 -3.5L0 -1.9L2.8 -3.5L4.4 -0.7Z" transform="translate(283 379)"></path><path d="M1.9 1.1L1.9 4.9L-1.9 4.9L-1.9 1.1L-5.2 -0.8L-3.3 -4.1L0 -2.2L3.3 -4.1L5.2 -0.8Z" transform="translate(111 358)"></path><path d="M1.3 0.8L1.3 3.5L-1.3 3.5L-1.3 0.8L-3.7 -0.6L-2.3 -2.9L0 -1.6L2.3 -2.9L3.7 -0.6Z" transform="translate(108 5)"></path><path d="M1.3 0.8L1.3 3.5L-1.3 3.5L-1.3 0.8L-3.7 -0.6L-2.3 -2.9L0 -1.6L2.3 -2.9L3.7 -0.6Z" transform="translate(183 251)"></path><path d="M1.3 0.8L1.3 3.5L-1.3 3.5L-1.3 0.8L-3.7 -0.6L-2.3 -2.9L0 -1.6L2.3 -2.9L3.7 -0.6Z" transform="translate(41 441)"></path><path d="M2.7 1.6L2.7 7L-2.7 7L-2.7 1.6L-7.4 -1.1L-4.7 -5.8L0 -3.1L4.7 -5.8L7.4 -1.1Z" transform="translate(635 156)"></path><path d="M1.3 0.8L1.3 3.5L-1.3 3.5L-1.3 0.8L-3.7 -0.6L-2.3 -2.9L0 -1.6L2.3 -2.9L3.7 -0.6Z" transform="translate(834 72)"></path><path d="M1.9 1.1L1.9 4.9L-1.9 4.9L-1.9 1.1L-5.2 -0.8L-3.3 -4.1L0 -2.2L3.3 -4.1L5.2 -0.8Z" transform="translate(153 276)"></path><path d="M1.3 0.8L1.3 3.5L-1.3 3.5L-1.3 0.8L-3.7 -0.6L-2.3 -2.9L0 -1.6L2.3 -2.9L3.7 -0.6Z" transform="translate(325 64)"></path><path d="M2.4 1.4L2.4 6.3L-2.4 6.3L-2.4 1.4L-6.6 -1L-4.2 -5.2L0 -2.8L4.2 -5.2L6.6 -1Z" transform="translate(7 259)"></path><path d="M1.6 0.9L1.6 4.2L-1.6 4.2L-1.6 0.9L-4.4 -0.7L-2.8 -3.5L0 -1.9L2.8 -3.5L4.4 -0.7Z" transform="translate(379 294)"></path><path d="M2.7 1.6L2.7 7L-2.7 7L-2.7 1.6L-7.4 -1.1L-4.7 -5.8L0 -3.1L4.7 -5.8L7.4 -1.1Z" transform="translate(476 184)"></path><path d="M1.9 1.1L1.9 4.9L-1.9 4.9L-1.9 1.1L-5.2 -0.8L-3.3 -4.1L0 -2.2L3.3 -4.1L5.2 -0.8Z" transform="translate(398 242)"></path><path d="M2.2 1.2L2.2 5.6L-2.2 5.6L-2.2 1.2L-5.9 -0.9L-3.7 -4.7L0 -2.5L3.7 -4.7L5.9 -0.9Z" transform="translate(585 317)"></path><path d="M2.7 1.6L2.7 7L-2.7 7L-2.7 1.6L-7.4 -1.1L-4.7 -5.8L0 -3.1L4.7 -5.8L7.4 -1.1Z" transform="translate(183 102)"></path><path d="M2.2 1.2L2.2 5.6L-2.2 5.6L-2.2 1.2L-5.9 -0.9L-3.7 -4.7L0 -2.5L3.7 -4.7L5.9 -0.9Z" transform="translate(228 148)"></path><path d="M2.4 1.4L2.4 6.3L-2.4 6.3L-2.4 1.4L-6.6 -1L-4.2 -5.2L0 -2.8L4.2 -5.2L6.6 -1Z" transform="translate(93 328)"></path><path d="M1.3 0.8L1.3 3.5L-1.3 3.5L-1.3 0.8L-3.7 -0.6L-2.3 -2.9L0 -1.6L2.3 -2.9L3.7 -0.6Z" transform="translate(97 151)"></path><path d="M1.9 1.1L1.9 4.9L-1.9 4.9L-1.9 1.1L-5.2 -0.8L-3.3 -4.1L0 -2.2L3.3 -4.1L5.2 -0.8Z" transform="translate(532 408)"></path><path d="M1.6 0.9L1.6 4.2L-1.6 4.2L-1.6 0.9L-4.4 -0.7L-2.8 -3.5L0 -1.9L2.8 -3.5L4.4 -0.7Z" transform="translate(222 351)"></path><path d="M2.4 1.4L2.4 6.3L-2.4 6.3L-2.4 1.4L-6.6 -1L-4.2 -5.2L0 -2.8L4.2 -5.2L6.6 -1Z" transform="translate(122 275)"></path><path d="M2.2 1.2L2.2 5.6L-2.2 5.6L-2.2 1.2L-5.9 -0.9L-3.7 -4.7L0 -2.5L3.7 -4.7L5.9 -0.9Z" transform="translate(604 16)"></path><path d="M2.4 1.4L2.4 6.3L-2.4 6.3L-2.4 1.4L-6.6 -1L-4.2 -5.2L0 -2.8L4.2 -5.2L6.6 -1Z" transform="translate(364 7)"></path><path d="M2.7 1.6L2.7 7L-2.7 7L-2.7 1.6L-7.4 -1.1L-4.7 -5.8L0 -3.1L4.7 -5.8L7.4 -1.1Z" transform="translate(626 57)"></path><path d="M2.7 1.6L2.7 7L-2.7 7L-2.7 1.6L-7.4 -1.1L-4.7 -5.8L0 -3.1L4.7 -5.8L7.4 -1.1Z" transform="translate(482 299)"></path><path d="M1.6 0.9L1.6 4.2L-1.6 4.2L-1.6 0.9L-4.4 -0.7L-2.8 -3.5L0 -1.9L2.8 -3.5L4.4 -0.7Z" transform="translate(734 388)"></path><path d="M2.7 1.6L2.7 7L-2.7 7L-2.7 1.6L-7.4 -1.1L-4.7 -5.8L0 -3.1L4.7 -5.8L7.4 -1.1Z" transform="translate(701 417)"></path><path d="M2.4 1.4L2.4 6.3L-2.4 6.3L-2.4 1.4L-6.6 -1L-4.2 -5.2L0 -2.8L4.2 -5.2L6.6 -1Z" transform="translate(563 234)"></path><path d="M2.2 1.2L2.2 5.6L-2.2 5.6L-2.2 1.2L-5.9 -0.9L-3.7 -4.7L0 -2.5L3.7 -4.7L5.9 -0.9Z" transform="translate(872 255)"></path><path d="M1.9 1.1L1.9 4.9L-1.9 4.9L-1.9 1.1L-5.2 -0.8L-3.3 -4.1L0 -2.2L3.3 -4.1L5.2 -0.8Z" transform="translate(760 393)"></path><path d="M1.3 0.8L1.3 3.5L-1.3 3.5L-1.3 0.8L-3.7 -0.6L-2.3 -2.9L0 -1.6L2.3 -2.9L3.7 -0.6Z" transform="translate(436 305)"></path><path d="M1.3 0.8L1.3 3.5L-1.3 3.5L-1.3 0.8L-3.7 -0.6L-2.3 -2.9L0 -1.6L2.3 -2.9L3.7 -0.6Z" transform="translate(450 133)"></path><path d="M1.9 1.1L1.9 4.9L-1.9 4.9L-1.9 1.1L-5.2 -0.8L-3.3 -4.1L0 -2.2L3.3 -4.1L5.2 -0.8Z" transform="translate(269 405)"></path><path d="M2.7 1.6L2.7 7L-2.7 7L-2.7 1.6L-7.4 -1.1L-4.7 -5.8L0 -3.1L4.7 -5.8L7.4 -1.1Z" transform="translate(17 323)"></path><path d="M1.9 1.1L1.9 4.9L-1.9 4.9L-1.9 1.1L-5.2 -0.8L-3.3 -4.1L0 -2.2L3.3 -4.1L5.2 -0.8Z" transform="translate(214 54)"></path><path d="M1.9 1.1L1.9 4.9L-1.9 4.9L-1.9 1.1L-5.2 -0.8L-3.3 -4.1L0 -2.2L3.3 -4.1L5.2 -0.8Z" transform="translate(680 331)"></path><path d="M2.2 1.2L2.2 5.6L-2.2 5.6L-2.2 1.2L-5.9 -0.9L-3.7 -4.7L0 -2.5L3.7 -4.7L5.9 -0.9Z" transform="translate(695 209)"></path><path d="M2.2 1.2L2.2 5.6L-2.2 5.6L-2.2 1.2L-5.9 -0.9L-3.7 -4.7L0 -2.5L3.7 -4.7L5.9 -0.9Z" transform="translate(834 105)"></path><path d="M1.3 0.8L1.3 3.5L-1.3 3.5L-1.3 0.8L-3.7 -0.6L-2.3 -2.9L0 -1.6L2.3 -2.9L3.7 -0.6Z" transform="translate(492 139)"></path><path d="M2.7 1.6L2.7 7L-2.7 7L-2.7 1.6L-7.4 -1.1L-4.7 -5.8L0 -3.1L4.7 -5.8L7.4 -1.1Z" transform="translate(183 439)"></path><path d="M1.9 1.1L1.9 4.9L-1.9 4.9L-1.9 1.1L-5.2 -0.8L-3.3 -4.1L0 -2.2L3.3 -4.1L5.2 -0.8Z" transform="translate(174 63)"></path><path d="M2.2 1.2L2.2 5.6L-2.2 5.6L-2.2 1.2L-5.9 -0.9L-3.7 -4.7L0 -2.5L3.7 -4.7L5.9 -0.9Z" transform="translate(777 125)"></path><path d="M1.6 0.9L1.6 4.2L-1.6 4.2L-1.6 0.9L-4.4 -0.7L-2.8 -3.5L0 -1.9L2.8 -3.5L4.4 -0.7Z" transform="translate(552 123)"></path><path d="M2.4 1.4L2.4 6.3L-2.4 6.3L-2.4 1.4L-6.6 -1L-4.2 -5.2L0 -2.8L4.2 -5.2L6.6 -1Z" transform="translate(231 439)"></path><path d="M2.4 1.4L2.4 6.3L-2.4 6.3L-2.4 1.4L-6.6 -1L-4.2 -5.2L0 -2.8L4.2 -5.2L6.6 -1Z" transform="translate(884 406)"></path><path d="M1.9 1.1L1.9 4.9L-1.9 4.9L-1.9 1.1L-5.2 -0.8L-3.3 -4.1L0 -2.2L3.3 -4.1L5.2 -0.8Z" transform="translate(274 241)"></path><path d="M1.9 1.1L1.9 4.9L-1.9 4.9L-1.9 1.1L-5.2 -0.8L-3.3 -4.1L0 -2.2L3.3 -4.1L5.2 -0.8Z" transform="translate(724 167)"></path><path d="M2.7 1.6L2.7 7L-2.7 7L-2.7 1.6L-7.4 -1.1L-4.7 -5.8L0 -3.1L4.7 -5.8L7.4 -1.1Z" transform="translate(388 163)"></path><path d="M2.2 1.2L2.2 5.6L-2.2 5.6L-2.2 1.2L-5.9 -0.9L-3.7 -4.7L0 -2.5L3.7 -4.7L5.9 -0.9Z" transform="translate(450 437)"></path><path d="M1.6 0.9L1.6 4.2L-1.6 4.2L-1.6 0.9L-4.4 -0.7L-2.8 -3.5L0 -1.9L2.8 -3.5L4.4 -0.7Z" transform="translate(785 339)"></path><path d="M1.9 1.1L1.9 4.9L-1.9 4.9L-1.9 1.1L-5.2 -0.8L-3.3 -4.1L0 -2.2L3.3 -4.1L5.2 -0.8Z" transform="translate(439 215)"></path><path d="M1.9 1.1L1.9 4.9L-1.9 4.9L-1.9 1.1L-5.2 -0.8L-3.3 -4.1L0 -2.2L3.3 -4.1L5.2 -0.8Z" transform="translate(785 397)"></path><path d="M1.3 0.8L1.3 3.5L-1.3 3.5L-1.3 0.8L-3.7 -0.6L-2.3 -2.9L0 -1.6L2.3 -2.9L3.7 -0.6Z" transform="translate(425 97)"></path><path d="M2.2 1.2L2.2 5.6L-2.2 5.6L-2.2 1.2L-5.9 -0.9L-3.7 -4.7L0 -2.5L3.7 -4.7L5.9 -0.9Z" transform="translate(638 372)"></path><path d="M1.9 1.1L1.9 4.9L-1.9 4.9L-1.9 1.1L-5.2 -0.8L-3.3 -4.1L0 -2.2L3.3 -4.1L5.2 -0.8Z" transform="translate(296 444)"></path><path d="M1.6 0.9L1.6 4.2L-1.6 4.2L-1.6 0.9L-4.4 -0.7L-2.8 -3.5L0 -1.9L2.8 -3.5L4.4 -0.7Z" transform="translate(837 1)"></path><path d="M1.3 0.8L1.3 3.5L-1.3 3.5L-1.3 0.8L-3.7 -0.6L-2.3 -2.9L0 -1.6L2.3 -2.9L3.7 -0.6Z" transform="translate(871 67)"></path><path d="M1.6 0.9L1.6 4.2L-1.6 4.2L-1.6 0.9L-4.4 -0.7L-2.8 -3.5L0 -1.9L2.8 -3.5L4.4 -0.7Z" transform="translate(323 145)"></path><path d="M1.3 0.8L1.3 3.5L-1.3 3.5L-1.3 0.8L-3.7 -0.6L-2.3 -2.9L0 -1.6L2.3 -2.9L3.7 -0.6Z" transform="translate(440 8)"></path><path d="M1.6 0.9L1.6 4.2L-1.6 4.2L-1.6 0.9L-4.4 -0.7L-2.8 -3.5L0 -1.9L2.8 -3.5L4.4 -0.7Z" transform="translate(874 323)"></path><path d="M2.2 1.2L2.2 5.6L-2.2 5.6L-2.2 1.2L-5.9 -0.9L-3.7 -4.7L0 -2.5L3.7 -4.7L5.9 -0.9Z" transform="translate(646 46)"></path><path d="M1.3 0.8L1.3 3.5L-1.3 3.5L-1.3 0.8L-3.7 -0.6L-2.3 -2.9L0 -1.6L2.3 -2.9L3.7 -0.6Z" transform="translate(489 46)"></path><path d="M1.6 0.9L1.6 4.2L-1.6 4.2L-1.6 0.9L-4.4 -0.7L-2.8 -3.5L0 -1.9L2.8 -3.5L4.4 -0.7Z" transform="translate(17 7)"></path><path d="M2.7 1.6L2.7 7L-2.7 7L-2.7 1.6L-7.4 -1.1L-4.7 -5.8L0 -3.1L4.7 -5.8L7.4 -1.1Z" transform="translate(805 222)"></path><path d="M2.7 1.6L2.7 7L-2.7 7L-2.7 1.6L-7.4 -1.1L-4.7 -5.8L0 -3.1L4.7 -5.8L7.4 -1.1Z" transform="translate(122 314)"></path><path d="M2.2 1.2L2.2 5.6L-2.2 5.6L-2.2 1.2L-5.9 -0.9L-3.7 -4.7L0 -2.5L3.7 -4.7L5.9 -0.9Z" transform="translate(172 2)"></path><path d="M1.3 0.8L1.3 3.5L-1.3 3.5L-1.3 0.8L-3.7 -0.6L-2.3 -2.9L0 -1.6L2.3 -2.9L3.7 -0.6Z" transform="translate(273 20)"></path><path d="M2.7 1.6L2.7 7L-2.7 7L-2.7 1.6L-7.4 -1.1L-4.7 -5.8L0 -3.1L4.7 -5.8L7.4 -1.1Z" transform="translate(672 95)"></path><path d="M2.2 1.2L2.2 5.6L-2.2 5.6L-2.2 1.2L-5.9 -0.9L-3.7 -4.7L0 -2.5L3.7 -4.7L5.9 -0.9Z" transform="translate(739 438)"></path><path d="M2.7 1.6L2.7 7L-2.7 7L-2.7 1.6L-7.4 -1.1L-4.7 -5.8L0 -3.1L4.7 -5.8L7.4 -1.1Z" transform="translate(547 146)"></path><path d="M2.2 1.2L2.2 5.6L-2.2 5.6L-2.2 1.2L-5.9 -0.9L-3.7 -4.7L0 -2.5L3.7 -4.7L5.9 -0.9Z" transform="translate(124 384)"></path><path d="M1.3 0.8L1.3 3.5L-1.3 3.5L-1.3 0.8L-3.7 -0.6L-2.3 -2.9L0 -1.6L2.3 -2.9L3.7 -0.6Z" transform="translate(602 363)"></path><path d="M1.9 1.1L1.9 4.9L-1.9 4.9L-1.9 1.1L-5.2 -0.8L-3.3 -4.1L0 -2.2L3.3 -4.1L5.2 -0.8Z" transform="translate(532 98)"></path><path d="M2.7 1.6L2.7 7L-2.7 7L-2.7 1.6L-7.4 -1.1L-4.7 -5.8L0 -3.1L4.7 -5.8L7.4 -1.1Z" transform="translate(60 193)"></path><path d="M2.4 1.4L2.4 6.3L-2.4 6.3L-2.4 1.4L-6.6 -1L-4.2 -5.2L0 -2.8L4.2 -5.2L6.6 -1Z" transform="translate(453 81)"></path><path d="M2.2 1.2L2.2 5.6L-2.2 5.6L-2.2 1.2L-5.9 -0.9L-3.7 -4.7L0 -2.5L3.7 -4.7L5.9 -0.9Z" transform="translate(106 31)"></path><path d="M1.6 0.9L1.6 4.2L-1.6 4.2L-1.6 0.9L-4.4 -0.7L-2.8 -3.5L0 -1.9L2.8 -3.5L4.4 -0.7Z" transform="translate(390 14)"></path><path d="M2.7 1.6L2.7 7L-2.7 7L-2.7 1.6L-7.4 -1.1L-4.7 -5.8L0 -3.1L4.7 -5.8L7.4 -1.1Z" transform="translate(534 433)"></path><path d="M2.2 1.2L2.2 5.6L-2.2 5.6L-2.2 1.2L-5.9 -0.9L-3.7 -4.7L0 -2.5L3.7 -4.7L5.9 -0.9Z" transform="translate(596 230)"></path><path d="M2.7 1.6L2.7 7L-2.7 7L-2.7 1.6L-7.4 -1.1L-4.7 -5.8L0 -3.1L4.7 -5.8L7.4 -1.1Z" transform="translate(243 229)"></path><path d="M2.2 1.2L2.2 5.6L-2.2 5.6L-2.2 1.2L-5.9 -0.9L-3.7 -4.7L0 -2.5L3.7 -4.7L5.9 -0.9Z" transform="translate(61 161)"></path><path d="M2.7 1.6L2.7 7L-2.7 7L-2.7 1.6L-7.4 -1.1L-4.7 -5.8L0 -3.1L4.7 -5.8L7.4 -1.1Z" transform="translate(749 4)"></path><path d="M2.7 1.6L2.7 7L-2.7 7L-2.7 1.6L-7.4 -1.1L-4.7 -5.8L0 -3.1L4.7 -5.8L7.4 -1.1Z" transform="translate(252 149)"></path><path d="M2.4 1.4L2.4 6.3L-2.4 6.3L-2.4 1.4L-6.6 -1L-4.2 -5.2L0 -2.8L4.2 -5.2L6.6 -1Z" transform="translate(317 382)"></path><path d="M1.9 1.1L1.9 4.9L-1.9 4.9L-1.9 1.1L-5.2 -0.8L-3.3 -4.1L0 -2.2L3.3 -4.1L5.2 -0.8Z" transform="translate(322 337)"></path><path d="M1.6 0.9L1.6 4.2L-1.6 4.2L-1.6 0.9L-4.4 -0.7L-2.8 -3.5L0 -1.9L2.8 -3.5L4.4 -0.7Z" transform="translate(782 83)"></path><path d="M1.3 0.8L1.3 3.5L-1.3 3.5L-1.3 0.8L-3.7 -0.6L-2.3 -2.9L0 -1.6L2.3 -2.9L3.7 -0.6Z" transform="translate(509 180)"></path><path d="M1.3 0.8L1.3 3.5L-1.3 3.5L-1.3 0.8L-3.7 -0.6L-2.3 -2.9L0 -1.6L2.3 -2.9L3.7 -0.6Z" transform="translate(280 273)"></path><path d="M2.2 1.2L2.2 5.6L-2.2 5.6L-2.2 1.2L-5.9 -0.9L-3.7 -4.7L0 -2.5L3.7 -4.7L5.9 -0.9Z" transform="translate(156 112)"></path><path d="M1.3 0.8L1.3 3.5L-1.3 3.5L-1.3 0.8L-3.7 -0.6L-2.3 -2.9L0 -1.6L2.3 -2.9L3.7 -0.6Z" transform="translate(38 285)"></path><path d="M2.4 1.4L2.4 6.3L-2.4 6.3L-2.4 1.4L-6.6 -1L-4.2 -5.2L0 -2.8L4.2 -5.2L6.6 -1Z" transform="translate(363 396)"></path><path d="M2.4 1.4L2.4 6.3L-2.4 6.3L-2.4 1.4L-6.6 -1L-4.2 -5.2L0 -2.8L4.2 -5.2L6.6 -1Z" transform="translate(125 177)"></path><path d="M2.7 1.6L2.7 7L-2.7 7L-2.7 1.6L-7.4 -1.1L-4.7 -5.8L0 -3.1L4.7 -5.8L7.4 -1.1Z" transform="translate(216 99)"></path><path d="M2.4 1.4L2.4 6.3L-2.4 6.3L-2.4 1.4L-6.6 -1L-4.2 -5.2L0 -2.8L4.2 -5.2L6.6 -1Z" transform="translate(392 108)"></path><path d="M2.7 1.6L2.7 7L-2.7 7L-2.7 1.6L-7.4 -1.1L-4.7 -5.8L0 -3.1L4.7 -5.8L7.4 -1.1Z" transform="translate(273 180)"></path><path d="M1.6 0.9L1.6 4.2L-1.6 4.2L-1.6 0.9L-4.4 -0.7L-2.8 -3.5L0 -1.9L2.8 -3.5L4.4 -0.7Z" transform="translate(121 134)"></path><path d="M1.3 0.8L1.3 3.5L-1.3 3.5L-1.3 0.8L-3.7 -0.6L-2.3 -2.9L0 -1.6L2.3 -2.9L3.7 -0.6Z" transform="translate(809 152)"></path><path d="M2.2 1.2L2.2 5.6L-2.2 5.6L-2.2 1.2L-5.9 -0.9L-3.7 -4.7L0 -2.5L3.7 -4.7L5.9 -0.9Z" transform="translate(422 250)"></path><path d="M1.6 0.9L1.6 4.2L-1.6 4.2L-1.6 0.9L-4.4 -0.7L-2.8 -3.5L0 -1.9L2.8 -3.5L4.4 -0.7Z" transform="translate(734 107)"></path><path d="M1.6 0.9L1.6 4.2L-1.6 4.2L-1.6 0.9L-4.4 -0.7L-2.8 -3.5L0 -1.9L2.8 -3.5L4.4 -0.7Z" transform="translate(132 21)"></path><path d="M1.9 1.1L1.9 4.9L-1.9 4.9L-1.9 1.1L-5.2 -0.8L-3.3 -4.1L0 -2.2L3.3 -4.1L5.2 -0.8Z" transform="translate(465 111)"></path><path d="M1.9 1.1L1.9 4.9L-1.9 4.9L-1.9 1.1L-5.2 -0.8L-3.3 -4.1L0 -2.2L3.3 -4.1L5.2 -0.8Z" transform="translate(518 217)"></path><path d="M1.6 0.9L1.6 4.2L-1.6 4.2L-1.6 0.9L-4.4 -0.7L-2.8 -3.5L0 -1.9L2.8 -3.5L4.4 -0.7Z" transform="translate(618 436)"></path><path d="M2.7 1.6L2.7 7L-2.7 7L-2.7 1.6L-7.4 -1.1L-4.7 -5.8L0 -3.1L4.7 -5.8L7.4 -1.1Z" transform="translate(721 275)"></path><path d="M2.4 1.4L2.4 6.3L-2.4 6.3L-2.4 1.4L-6.6 -1L-4.2 -5.2L0 -2.8L4.2 -5.2L6.6 -1Z" transform="translate(46 42)"></path><path d="M2.4 1.4L2.4 6.3L-2.4 6.3L-2.4 1.4L-6.6 -1L-4.2 -5.2L0 -2.8L4.2 -5.2L6.6 -1Z" transform="translate(852 295)"></path><path d="M1.9 1.1L1.9 4.9L-1.9 4.9L-1.9 1.1L-5.2 -0.8L-3.3 -4.1L0 -2.2L3.3 -4.1L5.2 -0.8Z" transform="translate(636 16)"></path><path d="M1.6 0.9L1.6 4.2L-1.6 4.2L-1.6 0.9L-4.4 -0.7L-2.8 -3.5L0 -1.9L2.8 -3.5L4.4 -0.7Z" transform="translate(371 345)"></path><path d="M1.3 0.8L1.3 3.5L-1.3 3.5L-1.3 0.8L-3.7 -0.6L-2.3 -2.9L0 -1.6L2.3 -2.9L3.7 -0.6Z" transform="translate(1 373)"></path><path d="M2.7 1.6L2.7 7L-2.7 7L-2.7 1.6L-7.4 -1.1L-4.7 -5.8L0 -3.1L4.7 -5.8L7.4 -1.1Z" transform="translate(502 102)"></path><path d="M1.6 0.9L1.6 4.2L-1.6 4.2L-1.6 0.9L-4.4 -0.7L-2.8 -3.5L0 -1.9L2.8 -3.5L4.4 -0.7Z" transform="translate(228 318)"></path><path d="M2.7 1.6L2.7 7L-2.7 7L-2.7 1.6L-7.4 -1.1L-4.7 -5.8L0 -3.1L4.7 -5.8L7.4 -1.1Z" transform="translate(392 271)"></path><path d="M2.2 1.2L2.2 5.6L-2.2 5.6L-2.2 1.2L-5.9 -0.9L-3.7 -4.7L0 -2.5L3.7 -4.7L5.9 -0.9Z" transform="translate(256 269)"></path><path d="M2.4 1.4L2.4 6.3L-2.4 6.3L-2.4 1.4L-6.6 -1L-4.2 -5.2L0 -2.8L4.2 -5.2L6.6 -1Z" transform="translate(795 201)"></path><path d="M1.9 1.1L1.9 4.9L-1.9 4.9L-1.9 1.1L-5.2 -0.8L-3.3 -4.1L0 -2.2L3.3 -4.1L5.2 -0.8Z" transform="translate(758 304)"></path><path d="M2.2 1.2L2.2 5.6L-2.2 5.6L-2.2 1.2L-5.9 -0.9L-3.7 -4.7L0 -2.5L3.7 -4.7L5.9 -0.9Z" transform="translate(836 159)"></path><path d="M1.9 1.1L1.9 4.9L-1.9 4.9L-1.9 1.1L-5.2 -0.8L-3.3 -4.1L0 -2.2L3.3 -4.1L5.2 -0.8Z" transform="translate(14 57)"></path><path d="M2.7 1.6L2.7 7L-2.7 7L-2.7 1.6L-7.4 -1.1L-4.7 -5.8L0 -3.1L4.7 -5.8L7.4 -1.1Z" transform="translate(255 437)"></path><path d="M2.2 1.2L2.2 5.6L-2.2 5.6L-2.2 1.2L-5.9 -0.9L-3.7 -4.7L0 -2.5L3.7 -4.7L5.9 -0.9Z" transform="translate(315 104)"></path><path d="M2.4 1.4L2.4 6.3L-2.4 6.3L-2.4 1.4L-6.6 -1L-4.2 -5.2L0 -2.8L4.2 -5.2L6.6 -1Z" transform="translate(283 148)"></path><path d="M2.2 1.2L2.2 5.6L-2.2 5.6L-2.2 1.2L-5.9 -0.9L-3.7 -4.7L0 -2.5L3.7 -4.7L5.9 -0.9Z" transform="translate(533 361)"></path><path d="M2.2 1.2L2.2 5.6L-2.2 5.6L-2.2 1.2L-5.9 -0.9L-3.7 -4.7L0 -2.5L3.7 -4.7L5.9 -0.9Z" transform="translate(263 108)"></path><path d="M1.6 0.9L1.6 4.2L-1.6 4.2L-1.6 0.9L-4.4 -0.7L-2.8 -3.5L0 -1.9L2.8 -3.5L4.4 -0.7Z" transform="translate(413 398)"></path><path d="M2.7 1.6L2.7 7L-2.7 7L-2.7 1.6L-7.4 -1.1L-4.7 -5.8L0 -3.1L4.7 -5.8L7.4 -1.1Z" transform="translate(688 254)"></path><path d="M1.9 1.1L1.9 4.9L-1.9 4.9L-1.9 1.1L-5.2 -0.8L-3.3 -4.1L0 -2.2L3.3 -4.1L5.2 -0.8Z" transform="translate(140 353)"></path><path d="M2.2 1.2L2.2 5.6L-2.2 5.6L-2.2 1.2L-5.9 -0.9L-3.7 -4.7L0 -2.5L3.7 -4.7L5.9 -0.9Z" transform="translate(442 357)"></path><path d="M2.2 1.2L2.2 5.6L-2.2 5.6L-2.2 1.2L-5.9 -0.9L-3.7 -4.7L0 -2.5L3.7 -4.7L5.9 -0.9Z" transform="translate(579 144)"></path><path d="M1.6 0.9L1.6 4.2L-1.6 4.2L-1.6 0.9L-4.4 -0.7L-2.8 -3.5L0 -1.9L2.8 -3.5L4.4 -0.7Z" transform="translate(623 412)"></path><path d="M2.2 1.2L2.2 5.6L-2.2 5.6L-2.2 1.2L-5.9 -0.9L-3.7 -4.7L0 -2.5L3.7 -4.7L5.9 -0.9Z" transform="translate(654 409)"></path><path d="M1.9 1.1L1.9 4.9L-1.9 4.9L-1.9 1.1L-5.2 -0.8L-3.3 -4.1L0 -2.2L3.3 -4.1L5.2 -0.8Z" transform="translate(645 134)"></path><path d="M2.7 1.6L2.7 7L-2.7 7L-2.7 1.6L-7.4 -1.1L-4.7 -5.8L0 -3.1L4.7 -5.8L7.4 -1.1Z" transform="translate(368 55)"></path><path d="M1.3 0.8L1.3 3.5L-1.3 3.5L-1.3 0.8L-3.7 -0.6L-2.3 -2.9L0 -1.6L2.3 -2.9L3.7 -0.6Z" transform="translate(821 124)"></path><path d="M2.2 1.2L2.2 5.6L-2.2 5.6L-2.2 1.2L-5.9 -0.9L-3.7 -4.7L0 -2.5L3.7 -4.7L5.9 -0.9Z" transform="translate(68 267)"></path><path d="M2.4 1.4L2.4 6.3L-2.4 6.3L-2.4 1.4L-6.6 -1L-4.2 -5.2L0 -2.8L4.2 -5.2L6.6 -1Z" transform="translate(319 285)"></path><path d="M1.6 0.9L1.6 4.2L-1.6 4.2L-1.6 0.9L-4.4 -0.7L-2.8 -3.5L0 -1.9L2.8 -3.5L4.4 -0.7Z" transform="translate(897 325)"></path><path d="M1.3 0.8L1.3 3.5L-1.3 3.5L-1.3 0.8L-3.7 -0.6L-2.3 -2.9L0 -1.6L2.3 -2.9L3.7 -0.6Z" transform="translate(312 312)"></path><path d="M1.3 0.8L1.3 3.5L-1.3 3.5L-1.3 0.8L-3.7 -0.6L-2.3 -2.9L0 -1.6L2.3 -2.9L3.7 -0.6Z" transform="translate(348 209)"></path><path d="M2.7 1.6L2.7 7L-2.7 7L-2.7 1.6L-7.4 -1.1L-4.7 -5.8L0 -3.1L4.7 -5.8L7.4 -1.1Z" transform="translate(862 125)"></path><path d="M2.4 1.4L2.4 6.3L-2.4 6.3L-2.4 1.4L-6.6 -1L-4.2 -5.2L0 -2.8L4.2 -5.2L6.6 -1Z" transform="translate(267 360)"></path><path d="M2.2 1.2L2.2 5.6L-2.2 5.6L-2.2 1.2L-5.9 -0.9L-3.7 -4.7L0 -2.5L3.7 -4.7L5.9 -0.9Z" transform="translate(289 304)"></path><path d="M1.6 0.9L1.6 4.2L-1.6 4.2L-1.6 0.9L-4.4 -0.7L-2.8 -3.5L0 -1.9L2.8 -3.5L4.4 -0.7Z" transform="translate(687 50)"></path><path d="M1.3 0.8L1.3 3.5L-1.3 3.5L-1.3 0.8L-3.7 -0.6L-2.3 -2.9L0 -1.6L2.3 -2.9L3.7 -0.6Z" transform="translate(21 113)"></path><path d="M2.4 1.4L2.4 6.3L-2.4 6.3L-2.4 1.4L-6.6 -1L-4.2 -5.2L0 -2.8L4.2 -5.2L6.6 -1Z" transform="translate(752 329)"></path><path d="M2.4 1.4L2.4 6.3L-2.4 6.3L-2.4 1.4L-6.6 -1L-4.2 -5.2L0 -2.8L4.2 -5.2L6.6 -1Z" transform="translate(387 374)"></path><path d="M1.3 0.8L1.3 3.5L-1.3 3.5L-1.3 0.8L-3.7 -0.6L-2.3 -2.9L0 -1.6L2.3 -2.9L3.7 -0.6Z" transform="translate(431 62)"></path><path d="M2.7 1.6L2.7 7L-2.7 7L-2.7 1.6L-7.4 -1.1L-4.7 -5.8L0 -3.1L4.7 -5.8L7.4 -1.1Z" transform="translate(871 347)"></path><path d="M2.4 1.4L2.4 6.3L-2.4 6.3L-2.4 1.4L-6.6 -1L-4.2 -5.2L0 -2.8L4.2 -5.2L6.6 -1Z" transform="translate(512 419)"></path><path d="M2.4 1.4L2.4 6.3L-2.4 6.3L-2.4 1.4L-6.6 -1L-4.2 -5.2L0 -2.8L4.2 -5.2L6.6 -1Z" transform="translate(79 423)"></path><path d="M1.3 0.8L1.3 3.5L-1.3 3.5L-1.3 0.8L-3.7 -0.6L-2.3 -2.9L0 -1.6L2.3 -2.9L3.7 -0.6Z" transform="translate(195 124)"></path><path d="M1.9 1.1L1.9 4.9L-1.9 4.9L-1.9 1.1L-5.2 -0.8L-3.3 -4.1L0 -2.2L3.3 -4.1L5.2 -0.8Z" transform="translate(898 280)"></path><path d="M1.6 0.9L1.6 4.2L-1.6 4.2L-1.6 0.9L-4.4 -0.7L-2.8 -3.5L0 -1.9L2.8 -3.5L4.4 -0.7Z" transform="translate(696 116)"></path><path d="M1.3 0.8L1.3 3.5L-1.3 3.5L-1.3 0.8L-3.7 -0.6L-2.3 -2.9L0 -1.6L2.3 -2.9L3.7 -0.6Z" transform="translate(372 253)"></path><path d="M2.2 1.2L2.2 5.6L-2.2 5.6L-2.2 1.2L-5.9 -0.9L-3.7 -4.7L0 -2.5L3.7 -4.7L5.9 -0.9Z" transform="translate(833 259)"></path><path d="M2.4 1.4L2.4 6.3L-2.4 6.3L-2.4 1.4L-6.6 -1L-4.2 -5.2L0 -2.8L4.2 -5.2L6.6 -1Z" transform="translate(189 185)"></path><path d="M1.3 0.8L1.3 3.5L-1.3 3.5L-1.3 0.8L-3.7 -0.6L-2.3 -2.9L0 -1.6L2.3 -2.9L3.7 -0.6Z" transform="translate(1 140)"></path><path d="M1.9 1.1L1.9 4.9L-1.9 4.9L-1.9 1.1L-5.2 -0.8L-3.3 -4.1L0 -2.2L3.3 -4.1L5.2 -0.8Z" transform="translate(544 217)"></path><path d="M2.4 1.4L2.4 6.3L-2.4 6.3L-2.4 1.4L-6.6 -1L-4.2 -5.2L0 -2.8L4.2 -5.2L6.6 -1Z" transform="translate(416 7)"></path><path d="M1.6 0.9L1.6 4.2L-1.6 4.2L-1.6 0.9L-4.4 -0.7L-2.8 -3.5L0 -1.9L2.8 -3.5L4.4 -0.7Z" transform="translate(142 328)"></path><path d="M2.2 1.2L2.2 5.6L-2.2 5.6L-2.2 1.2L-5.9 -0.9L-3.7 -4.7L0 -2.5L3.7 -4.7L5.9 -0.9Z" transform="translate(199 371)"></path><path d="M1.9 1.1L1.9 4.9L-1.9 4.9L-1.9 1.1L-5.2 -0.8L-3.3 -4.1L0 -2.2L3.3 -4.1L5.2 -0.8Z" transform="translate(549 327)"></path><path d="M2.7 1.6L2.7 7L-2.7 7L-2.7 1.6L-7.4 -1.1L-4.7 -5.8L0 -3.1L4.7 -5.8L7.4 -1.1Z" transform="translate(128 107)"></path><path d="M1.3 0.8L1.3 3.5L-1.3 3.5L-1.3 0.8L-3.7 -0.6L-2.3 -2.9L0 -1.6L2.3 -2.9L3.7 -0.6Z" transform="translate(77 225)"></path><path d="M1.6 0.9L1.6 4.2L-1.6 4.2L-1.6 0.9L-4.4 -0.7L-2.8 -3.5L0 -1.9L2.8 -3.5L4.4 -0.7Z" transform="translate(893 79)"></path><path d="M2.2 1.2L2.2 5.6L-2.2 5.6L-2.2 1.2L-5.9 -0.9L-3.7 -4.7L0 -2.5L3.7 -4.7L5.9 -0.9Z" transform="translate(468 356)"></path><path d="M1.6 0.9L1.6 4.2L-1.6 4.2L-1.6 0.9L-4.4 -0.7L-2.8 -3.5L0 -1.9L2.8 -3.5L4.4 -0.7Z" transform="translate(239 92)"></path><path d="M1.3 0.8L1.3 3.5L-1.3 3.5L-1.3 0.8L-3.7 -0.6L-2.3 -2.9L0 -1.6L2.3 -2.9L3.7 -0.6Z" transform="translate(166 413)"></path><path d="M2.2 1.2L2.2 5.6L-2.2 5.6L-2.2 1.2L-5.9 -0.9L-3.7 -4.7L0 -2.5L3.7 -4.7L5.9 -0.9Z" transform="translate(286 341)"></path><path d="M1.9 1.1L1.9 4.9L-1.9 4.9L-1.9 1.1L-5.2 -0.8L-3.3 -4.1L0 -2.2L3.3 -4.1L5.2 -0.8Z" transform="translate(726 240)"></path><path d="M1.3 0.8L1.3 3.5L-1.3 3.5L-1.3 0.8L-3.7 -0.6L-2.3 -2.9L0 -1.6L2.3 -2.9L3.7 -0.6Z" transform="translate(461 286)"></path><path d="M1.6 0.9L1.6 4.2L-1.6 4.2L-1.6 0.9L-4.4 -0.7L-2.8 -3.5L0 -1.9L2.8 -3.5L4.4 -0.7Z" transform="translate(61 294)"></path><path d="M1.3 0.8L1.3 3.5L-1.3 3.5L-1.3 0.8L-3.7 -0.6L-2.3 -2.9L0 -1.6L2.3 -2.9L3.7 -0.6Z" transform="translate(822 307)"></path><path d="M1.3 0.8L1.3 3.5L-1.3 3.5L-1.3 0.8L-3.7 -0.6L-2.3 -2.9L0 -1.6L2.3 -2.9L3.7 -0.6Z" transform="translate(5 302)"></path><path d="M2.4 1.4L2.4 6.3L-2.4 6.3L-2.4 1.4L-6.6 -1L-4.2 -5.2L0 -2.8L4.2 -5.2L6.6 -1Z" transform="translate(223 287)"></path><path d="M2.2 1.2L2.2 5.6L-2.2 5.6L-2.2 1.2L-5.9 -0.9L-3.7 -4.7L0 -2.5L3.7 -4.7L5.9 -0.9Z" transform="translate(296 400)"></path><path d="M1.3 0.8L1.3 3.5L-1.3 3.5L-1.3 0.8L-3.7 -0.6L-2.3 -2.9L0 -1.6L2.3 -2.9L3.7 -0.6Z" transform="translate(658 76)"></path><path d="M2.2 1.2L2.2 5.6L-2.2 5.6L-2.2 1.2L-5.9 -0.9L-3.7 -4.7L0 -2.5L3.7 -4.7L5.9 -0.9Z" transform="translate(898 52)"></path><path d="M1.3 0.8L1.3 3.5L-1.3 3.5L-1.3 0.8L-3.7 -0.6L-2.3 -2.9L0 -1.6L2.3 -2.9L3.7 -0.6Z" transform="translate(205 76)"></path><path d="M1.3 0.8L1.3 3.5L-1.3 3.5L-1.3 0.8L-3.7 -0.6L-2.3 -2.9L0 -1.6L2.3 -2.9L3.7 -0.6Z" transform="translate(408 335)"></path><path d="M1.6 0.9L1.6 4.2L-1.6 4.2L-1.6 0.9L-4.4 -0.7L-2.8 -3.5L0 -1.9L2.8 -3.5L4.4 -0.7Z" transform="translate(819 368)"></path><path d="M1.6 0.9L1.6 4.2L-1.6 4.2L-1.6 0.9L-4.4 -0.7L-2.8 -3.5L0 -1.9L2.8 -3.5L4.4 -0.7Z" transform="translate(691 305)"></path><path d="M1.3 0.8L1.3 3.5L-1.3 3.5L-1.3 0.8L-3.7 -0.6L-2.3 -2.9L0 -1.6L2.3 -2.9L3.7 -0.6Z" transform="translate(355 181)"></path><path d="M1.6 0.9L1.6 4.2L-1.6 4.2L-1.6 0.9L-4.4 -0.7L-2.8 -3.5L0 -1.9L2.8 -3.5L4.4 -0.7Z" transform="translate(408 203)"></path><path d="M1.6 0.9L1.6 4.2L-1.6 4.2L-1.6 0.9L-4.4 -0.7L-2.8 -3.5L0 -1.9L2.8 -3.5L4.4 -0.7Z" transform="translate(44 17)"></path><path d="M2.4 1.4L2.4 6.3L-2.4 6.3L-2.4 1.4L-6.6 -1L-4.2 -5.2L0 -2.8L4.2 -5.2L6.6 -1Z" transform="translate(812 175)"></path><path d="M2.2 1.2L2.2 5.6L-2.2 5.6L-2.2 1.2L-5.9 -0.9L-3.7 -4.7L0 -2.5L3.7 -4.7L5.9 -0.9Z" transform="translate(432 417)"></path><path d="M2.2 1.2L2.2 5.6L-2.2 5.6L-2.2 1.2L-5.9 -0.9L-3.7 -4.7L0 -2.5L3.7 -4.7L5.9 -0.9Z" transform="translate(556 413)"></path><path d="M2.2 1.2L2.2 5.6L-2.2 5.6L-2.2 1.2L-5.9 -0.9L-3.7 -4.7L0 -2.5L3.7 -4.7L5.9 -0.9Z" transform="translate(851 440)"></path><path d="M1.3 0.8L1.3 3.5L-1.3 3.5L-1.3 0.8L-3.7 -0.6L-2.3 -2.9L0 -1.6L2.3 -2.9L3.7 -0.6Z" transform="translate(566 261)"></path><path d="M2.4 1.4L2.4 6.3L-2.4 6.3L-2.4 1.4L-6.6 -1L-4.2 -5.2L0 -2.8L4.2 -5.2L6.6 -1Z" transform="translate(758 157)"></path><path d="M2.4 1.4L2.4 6.3L-2.4 6.3L-2.4 1.4L-6.6 -1L-4.2 -5.2L0 -2.8L4.2 -5.2L6.6 -1Z" transform="translate(295 74)"></path><path d="M1.6 0.9L1.6 4.2L-1.6 4.2L-1.6 0.9L-4.4 -0.7L-2.8 -3.5L0 -1.9L2.8 -3.5L4.4 -0.7Z" transform="translate(737 29)"></path><path d="M2.4 1.4L2.4 6.3L-2.4 6.3L-2.4 1.4L-6.6 -1L-4.2 -5.2L0 -2.8L4.2 -5.2L6.6 -1Z" transform="translate(520 119)"></path><path d="M2.4 1.4L2.4 6.3L-2.4 6.3L-2.4 1.4L-6.6 -1L-4.2 -5.2L0 -2.8L4.2 -5.2L6.6 -1Z" transform="translate(791 298)"></path><path d="M2.7 1.6L2.7 7L-2.7 7L-2.7 1.6L-7.4 -1.1L-4.7 -5.8L0 -3.1L4.7 -5.8L7.4 -1.1Z" transform="translate(511 29)"></path><path d="M1.6 0.9L1.6 4.2L-1.6 4.2L-1.6 0.9L-4.4 -0.7L-2.8 -3.5L0 -1.9L2.8 -3.5L4.4 -0.7Z" transform="translate(659 8)"></path><path d="M1.9 1.1L1.9 4.9L-1.9 4.9L-1.9 1.1L-5.2 -0.8L-3.3 -4.1L0 -2.2L3.3 -4.1L5.2 -0.8Z" transform="translate(27 374)"></path><path d="M1.3 0.8L1.3 3.5L-1.3 3.5L-1.3 0.8L-3.7 -0.6L-2.3 -2.9L0 -1.6L2.3 -2.9L3.7 -0.6Z" transform="translate(747 414)"></path><path d="M1.3 0.8L1.3 3.5L-1.3 3.5L-1.3 0.8L-3.7 -0.6L-2.3 -2.9L0 -1.6L2.3 -2.9L3.7 -0.6Z" transform="translate(150 300)"></path><path d="M1.9 1.1L1.9 4.9L-1.9 4.9L-1.9 1.1L-5.2 -0.8L-3.3 -4.1L0 -2.2L3.3 -4.1L5.2 -0.8Z" transform="translate(648 285)"></path><path d="M2.2 1.2L2.2 5.6L-2.2 5.6L-2.2 1.2L-5.9 -0.9L-3.7 -4.7L0 -2.5L3.7 -4.7L5.9 -0.9Z" transform="translate(5 404)"></path><path d="M1.6 0.9L1.6 4.2L-1.6 4.2L-1.6 0.9L-4.4 -0.7L-2.8 -3.5L0 -1.9L2.8 -3.5L4.4 -0.7Z" transform="translate(247 173)"></path><path d="M2.2 1.2L2.2 5.6L-2.2 5.6L-2.2 1.2L-5.9 -0.9L-3.7 -4.7L0 -2.5L3.7 -4.7L5.9 -0.9Z" transform="translate(603 46)"></path><path d="M2.2 1.2L2.2 5.6L-2.2 5.6L-2.2 1.2L-5.9 -0.9L-3.7 -4.7L0 -2.5L3.7 -4.7L5.9 -0.9Z" transform="translate(547 291)"></path><path d="M1.6 0.9L1.6 4.2L-1.6 4.2L-1.6 0.9L-4.4 -0.7L-2.8 -3.5L0 -1.9L2.8 -3.5L4.4 -0.7Z" transform="translate(609 315)"></path><path d="M2.4 1.4L2.4 6.3L-2.4 6.3L-2.4 1.4L-6.6 -1L-4.2 -5.2L0 -2.8L4.2 -5.2L6.6 -1Z" transform="translate(477 329)"></path><path d="M2.2 1.2L2.2 5.6L-2.2 5.6L-2.2 1.2L-5.9 -0.9L-3.7 -4.7L0 -2.5L3.7 -4.7L5.9 -0.9Z" transform="translate(196 330)"></path><path d="M1.3 0.8L1.3 3.5L-1.3 3.5L-1.3 0.8L-3.7 -0.6L-2.3 -2.9L0 -1.6L2.3 -2.9L3.7 -0.6Z" transform="translate(719 214)"></path><path d="M2.7 1.6L2.7 7L-2.7 7L-2.7 1.6L-7.4 -1.1L-4.7 -5.8L0 -3.1L4.7 -5.8L7.4 -1.1Z" transform="translate(304 160)"></path><path d="M1.6 0.9L1.6 4.2L-1.6 4.2L-1.6 0.9L-4.4 -0.7L-2.8 -3.5L0 -1.9L2.8 -3.5L4.4 -0.7Z" transform="translate(246 370)"></path><path d="M2.7 1.6L2.7 7L-2.7 7L-2.7 1.6L-7.4 -1.1L-4.7 -5.8L0 -3.1L4.7 -5.8L7.4 -1.1Z" transform="translate(554 49)"></path><path d="M2.7 1.6L2.7 7L-2.7 7L-2.7 1.6L-7.4 -1.1L-4.7 -5.8L0 -3.1L4.7 -5.8L7.4 -1.1Z" transform="translate(251 44)"></path><path d="M1.9 1.1L1.9 4.9L-1.9 4.9L-1.9 1.1L-5.2 -0.8L-3.3 -4.1L0 -2.2L3.3 -4.1L5.2 -0.8Z" transform="translate(324 258)"></path><path d="M1.9 1.1L1.9 4.9L-1.9 4.9L-1.9 1.1L-5.2 -0.8L-3.3 -4.1L0 -2.2L3.3 -4.1L5.2 -0.8Z" transform="translate(528 194)"></path><path d="M1.6 0.9L1.6 4.2L-1.6 4.2L-1.6 0.9L-4.4 -0.7L-2.8 -3.5L0 -1.9L2.8 -3.5L4.4 -0.7Z" transform="translate(420 135)"></path><path d="M1.9 1.1L1.9 4.9L-1.9 4.9L-1.9 1.1L-5.2 -0.8L-3.3 -4.1L0 -2.2L3.3 -4.1L5.2 -0.8Z" transform="translate(601 104)"></path><path d="M1.9 1.1L1.9 4.9L-1.9 4.9L-1.9 1.1L-5.2 -0.8L-3.3 -4.1L0 -2.2L3.3 -4.1L5.2 -0.8Z" transform="translate(176 165)"></path><path d="M1.6 0.9L1.6 4.2L-1.6 4.2L-1.6 0.9L-4.4 -0.7L-2.8 -3.5L0 -1.9L2.8 -3.5L4.4 -0.7Z" transform="translate(452 180)"></path><path d="M1.6 0.9L1.6 4.2L-1.6 4.2L-1.6 0.9L-4.4 -0.7L-2.8 -3.5L0 -1.9L2.8 -3.5L4.4 -0.7Z" transform="translate(90 257)"></path><path d="M2.2 1.2L2.2 5.6L-2.2 5.6L-2.2 1.2L-5.9 -0.9L-3.7 -4.7L0 -2.5L3.7 -4.7L5.9 -0.9Z" transform="translate(579 167)"></path><path d="M1.3 0.8L1.3 3.5L-1.3 3.5L-1.3 0.8L-3.7 -0.6L-2.3 -2.9L0 -1.6L2.3 -2.9L3.7 -0.6Z" transform="translate(897 426)"></path><path d="M1.9 1.1L1.9 4.9L-1.9 4.9L-1.9 1.1L-5.2 -0.8L-3.3 -4.1L0 -2.2L3.3 -4.1L5.2 -0.8Z" transform="translate(338 34)"></path><path d="M2.7 1.6L2.7 7L-2.7 7L-2.7 1.6L-7.4 -1.1L-4.7 -5.8L0 -3.1L4.7 -5.8L7.4 -1.1Z" transform="translate(4 184)"></path><path d="M2.2 1.2L2.2 5.6L-2.2 5.6L-2.2 1.2L-5.9 -0.9L-3.7 -4.7L0 -2.5L3.7 -4.7L5.9 -0.9Z" transform="translate(638 95)"></path><path d="M1.9 1.1L1.9 4.9L-1.9 4.9L-1.9 1.1L-5.2 -0.8L-3.3 -4.1L0 -2.2L3.3 -4.1L5.2 -0.8Z" transform="translate(418 38)"></path><path d="M1.3 0.8L1.3 3.5L-1.3 3.5L-1.3 0.8L-3.7 -0.6L-2.3 -2.9L0 -1.6L2.3 -2.9L3.7 -0.6Z" transform="translate(771 421)"></path><path d="M2.2 1.2L2.2 5.6L-2.2 5.6L-2.2 1.2L-5.9 -0.9L-3.7 -4.7L0 -2.5L3.7 -4.7L5.9 -0.9Z" transform="translate(700 184)"></path><path d="M1.9 1.1L1.9 4.9L-1.9 4.9L-1.9 1.1L-5.2 -0.8L-3.3 -4.1L0 -2.2L3.3 -4.1L5.2 -0.8Z" transform="translate(814 11)"></path><path d="M1.6 0.9L1.6 4.2L-1.6 4.2L-1.6 0.9L-4.4 -0.7L-2.8 -3.5L0 -1.9L2.8 -3.5L4.4 -0.7Z" transform="translate(15 347)"></path><path d="M1.3 0.8L1.3 3.5L-1.3 3.5L-1.3 0.8L-3.7 -0.6L-2.3 -2.9L0 -1.6L2.3 -2.9L3.7 -0.6Z" transform="translate(505 74)"></path><path d="M1.6 0.9L1.6 4.2L-1.6 4.2L-1.6 0.9L-4.4 -0.7L-2.8 -3.5L0 -1.9L2.8 -3.5L4.4 -0.7Z" transform="translate(132 417)"></path><path d="M1.3 0.8L1.3 3.5L-1.3 3.5L-1.3 0.8L-3.7 -0.6L-2.3 -2.9L0 -1.6L2.3 -2.9L3.7 -0.6Z" transform="translate(598 205)"></path><path d="M1.9 1.1L1.9 4.9L-1.9 4.9L-1.9 1.1L-5.2 -0.8L-3.3 -4.1L0 -2.2L3.3 -4.1L5.2 -0.8Z" transform="translate(110 89)"></path><path d="M1.9 1.1L1.9 4.9L-1.9 4.9L-1.9 1.1L-5.2 -0.8L-3.3 -4.1L0 -2.2L3.3 -4.1L5.2 -0.8Z" transform="translate(71 321)"></path><path d="M2.7 1.6L2.7 7L-2.7 7L-2.7 1.6L-7.4 -1.1L-4.7 -5.8L0 -3.1L4.7 -5.8L7.4 -1.1Z" transform="translate(626 119)"></path><path d="M2.7 1.6L2.7 7L-2.7 7L-2.7 1.6L-7.4 -1.1L-4.7 -5.8L0 -3.1L4.7 -5.8L7.4 -1.1Z" transform="translate(91 176)"></path><path d="M1.6 0.9L1.6 4.2L-1.6 4.2L-1.6 0.9L-4.4 -0.7L-2.8 -3.5L0 -1.9L2.8 -3.5L4.4 -0.7Z" transform="translate(79 122)"></path><path d="M1.9 1.1L1.9 4.9L-1.9 4.9L-1.9 1.1L-5.2 -0.8L-3.3 -4.1L0 -2.2L3.3 -4.1L5.2 -0.8Z" transform="translate(342 93)"></path><path d="M2.2 1.2L2.2 5.6L-2.2 5.6L-2.2 1.2L-5.9 -0.9L-3.7 -4.7L0 -2.5L3.7 -4.7L5.9 -0.9Z" transform="translate(616 341)"></path><path d="M1.9 1.1L1.9 4.9L-1.9 4.9L-1.9 1.1L-5.2 -0.8L-3.3 -4.1L0 -2.2L3.3 -4.1L5.2 -0.8Z" transform="translate(290 220)"></path><path d="M1.3 0.8L1.3 3.5L-1.3 3.5L-1.3 0.8L-3.7 -0.6L-2.3 -2.9L0 -1.6L2.3 -2.9L3.7 -0.6Z" transform="translate(541 268)"></path><path d="M1.9 1.1L1.9 4.9L-1.9 4.9L-1.9 1.1L-5.2 -0.8L-3.3 -4.1L0 -2.2L3.3 -4.1L5.2 -0.8Z" transform="translate(469 64)"></path><path d="M2.4 1.4L2.4 6.3L-2.4 6.3L-2.4 1.4L-6.6 -1L-4.2 -5.2L0 -2.8L4.2 -5.2L6.6 -1Z" transform="translate(801 424)"></path><path d="M2.4 1.4L2.4 6.3L-2.4 6.3L-2.4 1.4L-6.6 -1L-4.2 -5.2L0 -2.8L4.2 -5.2L6.6 -1Z" transform="translate(809 73)"></path><path d="M2.2 1.2L2.2 5.6L-2.2 5.6L-2.2 1.2L-5.9 -0.9L-3.7 -4.7L0 -2.5L3.7 -4.7L5.9 -0.9Z" transform="translate(512 348)"></path><path d="M2.7 1.6L2.7 7L-2.7 7L-2.7 1.6L-7.4 -1.1L-4.7 -5.8L0 -3.1L4.7 -5.8L7.4 -1.1Z" transform="translate(243 410)"></path><path d="M2.4 1.4L2.4 6.3L-2.4 6.3L-2.4 1.4L-6.6 -1L-4.2 -5.2L0 -2.8L4.2 -5.2L6.6 -1Z" transform="translate(279 427)"></path><path d="M2.2 1.2L2.2 5.6L-2.2 5.6L-2.2 1.2L-5.9 -0.9L-3.7 -4.7L0 -2.5L3.7 -4.7L5.9 -0.9Z" transform="translate(806 104)"></path><path d="M2.7 1.6L2.7 7L-2.7 7L-2.7 1.6L-7.4 -1.1L-4.7 -5.8L0 -3.1L4.7 -5.8L7.4 -1.1Z" transform="translate(624 269)"></path><path d="M2.2 1.2L2.2 5.6L-2.2 5.6L-2.2 1.2L-5.9 -0.9L-3.7 -4.7L0 -2.5L3.7 -4.7L5.9 -0.9Z" transform="translate(181 214)"></path><path d="M1.6 0.9L1.6 4.2L-1.6 4.2L-1.6 0.9L-4.4 -0.7L-2.8 -3.5L0 -1.9L2.8 -3.5L4.4 -0.7Z" transform="translate(65 30)"></path><path d="M1.3 0.8L1.3 3.5L-1.3 3.5L-1.3 0.8L-3.7 -0.6L-2.3 -2.9L0 -1.6L2.3 -2.9L3.7 -0.6Z" transform="translate(54 402)"></path><path d="M2.2 1.2L2.2 5.6L-2.2 5.6L-2.2 1.2L-5.9 -0.9L-3.7 -4.7L0 -2.5L3.7 -4.7L5.9 -0.9Z" transform="translate(305 358)"></path><path d="M1.9 1.1L1.9 4.9L-1.9 4.9L-1.9 1.1L-5.2 -0.8L-3.3 -4.1L0 -2.2L3.3 -4.1L5.2 -0.8Z" transform="translate(572 199)"></path><path d="M1.6 0.9L1.6 4.2L-1.6 4.2L-1.6 0.9L-4.4 -0.7L-2.8 -3.5L0 -1.9L2.8 -3.5L4.4 -0.7Z" transform="translate(894 192)"></path><path d="M2.2 1.2L2.2 5.6L-2.2 5.6L-2.2 1.2L-5.9 -0.9L-3.7 -4.7L0 -2.5L3.7 -4.7L5.9 -0.9Z" transform="translate(788 2)"></path><path d="M2.7 1.6L2.7 7L-2.7 7L-2.7 1.6L-7.4 -1.1L-4.7 -5.8L0 -3.1L4.7 -5.8L7.4 -1.1Z" transform="translate(139 196)"></path><path d="M1.3 0.8L1.3 3.5L-1.3 3.5L-1.3 0.8L-3.7 -0.6L-2.3 -2.9L0 -1.6L2.3 -2.9L3.7 -0.6Z" transform="translate(466 156)"></path><path d="M2.4 1.4L2.4 6.3L-2.4 6.3L-2.4 1.4L-6.6 -1L-4.2 -5.2L0 -2.8L4.2 -5.2L6.6 -1Z" transform="translate(775 274)"></path><path d="M2.7 1.6L2.7 7L-2.7 7L-2.7 1.6L-7.4 -1.1L-4.7 -5.8L0 -3.1L4.7 -5.8L7.4 -1.1Z" transform="translate(808 396)"></path><path d="M1.3 0.8L1.3 3.5L-1.3 3.5L-1.3 0.8L-3.7 -0.6L-2.3 -2.9L0 -1.6L2.3 -2.9L3.7 -0.6Z" transform="translate(209 447)"></path><path d="M2.7 1.6L2.7 7L-2.7 7L-2.7 1.6L-7.4 -1.1L-4.7 -5.8L0 -3.1L4.7 -5.8L7.4 -1.1Z" transform="translate(753 370)"></path><path d="M2.4 1.4L2.4 6.3L-2.4 6.3L-2.4 1.4L-6.6 -1L-4.2 -5.2L0 -2.8L4.2 -5.2L6.6 -1Z" transform="translate(846 318)"></path><path d="M1.9 1.1L1.9 4.9L-1.9 4.9L-1.9 1.1L-5.2 -0.8L-3.3 -4.1L0 -2.2L3.3 -4.1L5.2 -0.8Z" transform="translate(291 196)"></path><path d="M1.6 0.9L1.6 4.2L-1.6 4.2L-1.6 0.9L-4.4 -0.7L-2.8 -3.5L0 -1.9L2.8 -3.5L4.4 -0.7Z" transform="translate(712 364)"></path><path d="M1.6 0.9L1.6 4.2L-1.6 4.2L-1.6 0.9L-4.4 -0.7L-2.8 -3.5L0 -1.9L2.8 -3.5L4.4 -0.7Z" transform="translate(688 77)"></path><path d="M2.2 1.2L2.2 5.6L-2.2 5.6L-2.2 1.2L-5.9 -0.9L-3.7 -4.7L0 -2.5L3.7 -4.7L5.9 -0.9Z" transform="translate(674 432)"></path><path d="M2.7 1.6L2.7 7L-2.7 7L-2.7 1.6L-7.4 -1.1L-4.7 -5.8L0 -3.1L4.7 -5.8L7.4 -1.1Z" transform="translate(99 305)"></path><path d="M2.2 1.2L2.2 5.6L-2.2 5.6L-2.2 1.2L-5.9 -0.9L-3.7 -4.7L0 -2.5L3.7 -4.7L5.9 -0.9Z" transform="translate(345 273)"></path><path d="M1.3 0.8L1.3 3.5L-1.3 3.5L-1.3 0.8L-3.7 -0.6L-2.3 -2.9L0 -1.6L2.3 -2.9L3.7 -0.6Z" transform="translate(498 238)"></path><path d="M2.4 1.4L2.4 6.3L-2.4 6.3L-2.4 1.4L-6.6 -1L-4.2 -5.2L0 -2.8L4.2 -5.2L6.6 -1Z" transform="translate(883 143)"></path><path d="M2.2 1.2L2.2 5.6L-2.2 5.6L-2.2 1.2L-5.9 -0.9L-3.7 -4.7L0 -2.5L3.7 -4.7L5.9 -0.9Z" transform="translate(33 191)"></path><path d="M2.7 1.6L2.7 7L-2.7 7L-2.7 1.6L-7.4 -1.1L-4.7 -5.8L0 -3.1L4.7 -5.8L7.4 -1.1Z" transform="translate(867 25)"></path><path d="M2.2 1.2L2.2 5.6L-2.2 5.6L-2.2 1.2L-5.9 -0.9L-3.7 -4.7L0 -2.5L3.7 -4.7L5.9 -0.9Z" transform="translate(478 225)"></path><path d="M2.2 1.2L2.2 5.6L-2.2 5.6L-2.2 1.2L-5.9 -0.9L-3.7 -4.7L0 -2.5L3.7 -4.7L5.9 -0.9Z" transform="translate(290 103)"></path><path d="M2.7 1.6L2.7 7L-2.7 7L-2.7 1.6L-7.4 -1.1L-4.7 -5.8L0 -3.1L4.7 -5.8L7.4 -1.1Z" transform="translate(389 404)"></path><path d="M2.4 1.4L2.4 6.3L-2.4 6.3L-2.4 1.4L-6.6 -1L-4.2 -5.2L0 -2.8L4.2 -5.2L6.6 -1Z" transform="translate(195 419)"></path><path d="M1.3 0.8L1.3 3.5L-1.3 3.5L-1.3 0.8L-3.7 -0.6L-2.3 -2.9L0 -1.6L2.3 -2.9L3.7 -0.6Z" transform="translate(710 393)"></path><path d="M1.6 0.9L1.6 4.2L-1.6 4.2L-1.6 0.9L-4.4 -0.7L-2.8 -3.5L0 -1.9L2.8 -3.5L4.4 -0.7Z" transform="translate(215 2)"></path><path d="M2.4 1.4L2.4 6.3L-2.4 6.3L-2.4 1.4L-6.6 -1L-4.2 -5.2L0 -2.8L4.2 -5.2L6.6 -1Z" transform="translate(499 439)"></path><path d="M2.2 1.2L2.2 5.6L-2.2 5.6L-2.2 1.2L-5.9 -0.9L-3.7 -4.7L0 -2.5L3.7 -4.7L5.9 -0.9Z" transform="translate(88 373)"></path><path d="M2.7 1.6L2.7 7L-2.7 7L-2.7 1.6L-7.4 -1.1L-4.7 -5.8L0 -3.1L4.7 -5.8L7.4 -1.1Z" transform="translate(146 42)"></path><path d="M2.2 1.2L2.2 5.6L-2.2 5.6L-2.2 1.2L-5.9 -0.9L-3.7 -4.7L0 -2.5L3.7 -4.7L5.9 -0.9Z" transform="translate(368 228)"></path><path d="M1.3 0.8L1.3 3.5L-1.3 3.5L-1.3 0.8L-3.7 -0.6L-2.3 -2.9L0 -1.6L2.3 -2.9L3.7 -0.6Z" transform="translate(333 121)"></path><path d="M2.4 1.4L2.4 6.3L-2.4 6.3L-2.4 1.4L-6.6 -1L-4.2 -5.2L0 -2.8L4.2 -5.2L6.6 -1Z" transform="translate(165 192)"></path><path d="M2.4 1.4L2.4 6.3L-2.4 6.3L-2.4 1.4L-6.6 -1L-4.2 -5.2L0 -2.8L4.2 -5.2L6.6 -1Z" transform="translate(21 235)"></path><path d="M2.7 1.6L2.7 7L-2.7 7L-2.7 1.6L-7.4 -1.1L-4.7 -5.8L0 -3.1L4.7 -5.8L7.4 -1.1Z" transform="translate(849 205)"></path><path d="M2.7 1.6L2.7 7L-2.7 7L-2.7 1.6L-7.4 -1.1L-4.7 -5.8L0 -3.1L4.7 -5.8L7.4 -1.1Z" transform="translate(702 234)"></path><path d="M1.6 0.9L1.6 4.2L-1.6 4.2L-1.6 0.9L-4.4 -0.7L-2.8 -3.5L0 -1.9L2.8 -3.5L4.4 -0.7Z" transform="translate(364 367)"></path><path d="M2.7 1.6L2.7 7L-2.7 7L-2.7 1.6L-7.4 -1.1L-4.7 -5.8L0 -3.1L4.7 -5.8L7.4 -1.1Z" transform="translate(618 387)"></path><path d="M1.9 1.1L1.9 4.9L-1.9 4.9L-1.9 1.1L-5.2 -0.8L-3.3 -4.1L0 -2.2L3.3 -4.1L5.2 -0.8Z" transform="translate(774 249)"></path><path d="M1.6 0.9L1.6 4.2L-1.6 4.2L-1.6 0.9L-4.4 -0.7L-2.8 -3.5L0 -1.9L2.8 -3.5L4.4 -0.7Z" transform="translate(854 270)"></path><path d="M1.3 0.8L1.3 3.5L-1.3 3.5L-1.3 0.8L-3.7 -0.6L-2.3 -2.9L0 -1.6L2.3 -2.9L3.7 -0.6Z" transform="translate(897 358)"></path><path d="M1.6 0.9L1.6 4.2L-1.6 4.2L-1.6 0.9L-4.4 -0.7L-2.8 -3.5L0 -1.9L2.8 -3.5L4.4 -0.7Z" transform="translate(16 32)"></path><path d="M2.7 1.6L2.7 7L-2.7 7L-2.7 1.6L-7.4 -1.1L-4.7 -5.8L0 -3.1L4.7 -5.8L7.4 -1.1Z" transform="translate(809 345)"></path><path d="M1.6 0.9L1.6 4.2L-1.6 4.2L-1.6 0.9L-4.4 -0.7L-2.8 -3.5L0 -1.9L2.8 -3.5L4.4 -0.7Z" transform="translate(107 449)"></path><path d="M1.6 0.9L1.6 4.2L-1.6 4.2L-1.6 0.9L-4.4 -0.7L-2.8 -3.5L0 -1.9L2.8 -3.5L4.4 -0.7Z" transform="translate(641 232)"></path><path d="M2.7 1.6L2.7 7L-2.7 7L-2.7 1.6L-7.4 -1.1L-4.7 -5.8L0 -3.1L4.7 -5.8L7.4 -1.1Z" transform="translate(681 143)"></path><path d="M1.9 1.1L1.9 4.9L-1.9 4.9L-1.9 1.1L-5.2 -0.8L-3.3 -4.1L0 -2.2L3.3 -4.1L5.2 -0.8Z" transform="translate(89 206)"></path><path d="M1.3 0.8L1.3 3.5L-1.3 3.5L-1.3 0.8L-3.7 -0.6L-2.3 -2.9L0 -1.6L2.3 -2.9L3.7 -0.6Z" transform="translate(463 380)"></path><path d="M1.6 0.9L1.6 4.2L-1.6 4.2L-1.6 0.9L-4.4 -0.7L-2.8 -3.5L0 -1.9L2.8 -3.5L4.4 -0.7Z" transform="translate(163 90)"></path><path d="M2.4 1.4L2.4 6.3L-2.4 6.3L-2.4 1.4L-6.6 -1L-4.2 -5.2L0 -2.8L4.2 -5.2L6.6 -1Z" transform="translate(48 331)"></path><path d="M2.7 1.6L2.7 7L-2.7 7L-2.7 1.6L-7.4 -1.1L-4.7 -5.8L0 -3.1L4.7 -5.8L7.4 -1.1Z" transform="translate(694 6)"></path><path d="M2.2 1.2L2.2 5.6L-2.2 5.6L-2.2 1.2L-5.9 -0.9L-3.7 -4.7L0 -2.5L3.7 -4.7L5.9 -0.9Z" transform="translate(728 192)"></path><path d="M1.9 1.1L1.9 4.9L-1.9 4.9L-1.9 1.1L-5.2 -0.8L-3.3 -4.1L0 -2.2L3.3 -4.1L5.2 -0.8Z" transform="translate(864 94)"></path><path d="M1.3 0.8L1.3 3.5L-1.3 3.5L-1.3 0.8L-3.7 -0.6L-2.3 -2.9L0 -1.6L2.3 -2.9L3.7 -0.6Z" transform="translate(526 329)"></path><path d="M2.7 1.6L2.7 7L-2.7 7L-2.7 1.6L-7.4 -1.1L-4.7 -5.8L0 -3.1L4.7 -5.8L7.4 -1.1Z" transform="translate(204 30)"></path><path d="M2.7 1.6L2.7 7L-2.7 7L-2.7 1.6L-7.4 -1.1L-4.7 -5.8L0 -3.1L4.7 -5.8L7.4 -1.1Z" transform="translate(490 364)"></path><path d="M2.2 1.2L2.2 5.6L-2.2 5.6L-2.2 1.2L-5.9 -0.9L-3.7 -4.7L0 -2.5L3.7 -4.7L5.9 -0.9Z" transform="translate(363 32)"></path><path d="M1.3 0.8L1.3 3.5L-1.3 3.5L-1.3 0.8L-3.7 -0.6L-2.3 -2.9L0 -1.6L2.3 -2.9L3.7 -0.6Z" transform="translate(203 263)"></path><path d="M2.2 1.2L2.2 5.6L-2.2 5.6L-2.2 1.2L-5.9 -0.9L-3.7 -4.7L0 -2.5L3.7 -4.7L5.9 -0.9Z" transform="translate(593 449)"></path><path d="M2.4 1.4L2.4 6.3L-2.4 6.3L-2.4 1.4L-6.6 -1L-4.2 -5.2L0 -2.8L4.2 -5.2L6.6 -1Z" transform="translate(87 84)"></path><path d="M1.9 1.1L1.9 4.9L-1.9 4.9L-1.9 1.1L-5.2 -0.8L-3.3 -4.1L0 -2.2L3.3 -4.1L5.2 -0.8Z" transform="translate(775 187)"></path><path d="M2.7 1.6L2.7 7L-2.7 7L-2.7 1.6L-7.4 -1.1L-4.7 -5.8L0 -3.1L4.7 -5.8L7.4 -1.1Z" transform="translate(55 238)"></path><path d="M1.9 1.1L1.9 4.9L-1.9 4.9L-1.9 1.1L-5.2 -0.8L-3.3 -4.1L0 -2.2L3.3 -4.1L5.2 -0.8Z" transform="translate(176 142)"></path><path d="M1.6 0.9L1.6 4.2L-1.6 4.2L-1.6 0.9L-4.4 -0.7L-2.8 -3.5L0 -1.9L2.8 -3.5L4.4 -0.7Z" transform="translate(254 197)"></path><path d="M2.7 1.6L2.7 7L-2.7 7L-2.7 1.6L-7.4 -1.1L-4.7 -5.8L0 -3.1L4.7 -5.8L7.4 -1.1Z" transform="translate(494 9)"></path><path d="M1.6 0.9L1.6 4.2L-1.6 4.2L-1.6 0.9L-4.4 -0.7L-2.8 -3.5L0 -1.9L2.8 -3.5L4.4 -0.7Z" transform="translate(45 108)"></path><path d="M1.6 0.9L1.6 4.2L-1.6 4.2L-1.6 0.9L-4.4 -0.7L-2.8 -3.5L0 -1.9L2.8 -3.5L4.4 -0.7Z" transform="translate(274 50)"></path><path d="M1.9 1.1L1.9 4.9L-1.9 4.9L-1.9 1.1L-5.2 -0.8L-3.3 -4.1L0 -2.2L3.3 -4.1L5.2 -0.8Z" transform="translate(333 228)"></path><path d="M1.9 1.1L1.9 4.9L-1.9 4.9L-1.9 1.1L-5.2 -0.8L-3.3 -4.1L0 -2.2L3.3 -4.1L5.2 -0.8Z" transform="translate(647 179)"></path><path d="M2.4 1.4L2.4 6.3L-2.4 6.3L-2.4 1.4L-6.6 -1L-4.2 -5.2L0 -2.8L4.2 -5.2L6.6 -1Z" transform="translate(160 446)"></path><path d="M2.4 1.4L2.4 6.3L-2.4 6.3L-2.4 1.4L-6.6 -1L-4.2 -5.2L0 -2.8L4.2 -5.2L6.6 -1Z" transform="translate(556 447)"></path><path d="M2.7 1.6L2.7 7L-2.7 7L-2.7 1.6L-7.4 -1.1L-4.7 -5.8L0 -3.1L4.7 -5.8L7.4 -1.1Z" transform="translate(762 26)"></path><path d="M2.2 1.2L2.2 5.6L-2.2 5.6L-2.2 1.2L-5.9 -0.9L-3.7 -4.7L0 -2.5L3.7 -4.7L5.9 -0.9Z" transform="translate(405 359)"></path><path d="M1.3 0.8L1.3 3.5L-1.3 3.5L-1.3 0.8L-3.7 -0.6L-2.3 -2.9L0 -1.6L2.3 -2.9L3.7 -0.6Z" transform="translate(458 310)"></path><path d="M2.7 1.6L2.7 7L-2.7 7L-2.7 1.6L-7.4 -1.1L-4.7 -5.8L0 -3.1L4.7 -5.8L7.4 -1.1Z" transform="translate(819 199)"></path><path d="M2.4 1.4L2.4 6.3L-2.4 6.3L-2.4 1.4L-6.6 -1L-4.2 -5.2L0 -2.8L4.2 -5.2L6.6 -1Z" transform="translate(207 305)"></path><path d="M2.2 1.2L2.2 5.6L-2.2 5.6L-2.2 1.2L-5.9 -0.9L-3.7 -4.7L0 -2.5L3.7 -4.7L5.9 -0.9Z" transform="translate(101 403)"></path><path d="M2.4 1.4L2.4 6.3L-2.4 6.3L-2.4 1.4L-6.6 -1L-4.2 -5.2L0 -2.8L4.2 -5.2L6.6 -1Z" transform="translate(764 350)"></path><path d="M2.4 1.4L2.4 6.3L-2.4 6.3L-2.4 1.4L-6.6 -1L-4.2 -5.2L0 -2.8L4.2 -5.2L6.6 -1Z" transform="translate(300 262)"></path><path d="M1.3 0.8L1.3 3.5L-1.3 3.5L-1.3 0.8L-3.7 -0.6L-2.3 -2.9L0 -1.6L2.3 -2.9L3.7 -0.6Z" transform="translate(271 80)"></path><path d="M1.9 1.1L1.9 4.9L-1.9 4.9L-1.9 1.1L-5.2 -0.8L-3.3 -4.1L0 -2.2L3.3 -4.1L5.2 -0.8Z" transform="translate(534 32)"></path><path d="M1.6 0.9L1.6 4.2L-1.6 4.2L-1.6 0.9L-4.4 -0.7L-2.8 -3.5L0 -1.9L2.8 -3.5L4.4 -0.7Z" transform="translate(611 158)"></path><path d="M1.9 1.1L1.9 4.9L-1.9 4.9L-1.9 1.1L-5.2 -0.8L-3.3 -4.1L0 -2.2L3.3 -4.1L5.2 -0.8Z" transform="translate(316 29)"></path><path d="M2.4 1.4L2.4 6.3L-2.4 6.3L-2.4 1.4L-6.6 -1L-4.2 -5.2L0 -2.8L4.2 -5.2L6.6 -1Z" transform="translate(208 173)"></path><path d="M2.4 1.4L2.4 6.3L-2.4 6.3L-2.4 1.4L-6.6 -1L-4.2 -5.2L0 -2.8L4.2 -5.2L6.6 -1Z" transform="translate(131 224)"></path><path d="M1.6 0.9L1.6 4.2L-1.6 4.2L-1.6 0.9L-4.4 -0.7L-2.8 -3.5L0 -1.9L2.8 -3.5L4.4 -0.7Z" transform="translate(899 255)"></path><path d="M2.4 1.4L2.4 6.3L-2.4 6.3L-2.4 1.4L-6.6 -1L-4.2 -5.2L0 -2.8L4.2 -5.2L6.6 -1Z" transform="translate(599 415)"></path><path d="M2.4 1.4L2.4 6.3L-2.4 6.3L-2.4 1.4L-6.6 -1L-4.2 -5.2L0 -2.8L4.2 -5.2L6.6 -1Z" transform="translate(470 2)"></path><path d="M1.3 0.8L1.3 3.5L-1.3 3.5L-1.3 0.8L-3.7 -0.6L-2.3 -2.9L0 -1.6L2.3 -2.9L3.7 -0.6Z" transform="translate(428 444)"></path><path d="M2.4 1.4L2.4 6.3L-2.4 6.3L-2.4 1.4L-6.6 -1L-4.2 -5.2L0 -2.8L4.2 -5.2L6.6 -1Z" transform="translate(593 288)"></path><path d="M2.7 1.6L2.7 7L-2.7 7L-2.7 1.6L-7.4 -1.1L-4.7 -5.8L0 -3.1L4.7 -5.8L7.4 -1.1Z" transform="translate(665 248)"></path><path d="M2.2 1.2L2.2 5.6L-2.2 5.6L-2.2 1.2L-5.9 -0.9L-3.7 -4.7L0 -2.5L3.7 -4.7L5.9 -0.9Z" transform="translate(739 289)"></path><path d="M1.9 1.1L1.9 4.9L-1.9 4.9L-1.9 1.1L-5.2 -0.8L-3.3 -4.1L0 -2.2L3.3 -4.1L5.2 -0.8Z" transform="translate(745 207)"></path><path d="M1.9 1.1L1.9 4.9L-1.9 4.9L-1.9 1.1L-5.2 -0.8L-3.3 -4.1L0 -2.2L3.3 -4.1L5.2 -0.8Z" transform="translate(817 242)"></path><path d="M2.2 1.2L2.2 5.6L-2.2 5.6L-2.2 1.2L-5.9 -0.9L-3.7 -4.7L0 -2.5L3.7 -4.7L5.9 -0.9Z" transform="translate(463 205)"></path><path d="M1.3 0.8L1.3 3.5L-1.3 3.5L-1.3 0.8L-3.7 -0.6L-2.3 -2.9L0 -1.6L2.3 -2.9L3.7 -0.6Z" transform="translate(799 131)"></path><path d="M1.3 0.8L1.3 3.5L-1.3 3.5L-1.3 0.8L-3.7 -0.6L-2.3 -2.9L0 -1.6L2.3 -2.9L3.7 -0.6Z" transform="translate(485 276)"></path><path d="M1.6 0.9L1.6 4.2L-1.6 4.2L-1.6 0.9L-4.4 -0.7L-2.8 -3.5L0 -1.9L2.8 -3.5L4.4 -0.7Z" transform="translate(580 29)"></path><path d="M2.4 1.4L2.4 6.3L-2.4 6.3L-2.4 1.4L-6.6 -1L-4.2 -5.2L0 -2.8L4.2 -5.2L6.6 -1Z" transform="translate(617 247)"></path><path d="M1.3 0.8L1.3 3.5L-1.3 3.5L-1.3 0.8L-3.7 -0.6L-2.3 -2.9L0 -1.6L2.3 -2.9L3.7 -0.6Z" transform="translate(789 60)"></path><path d="M1.3 0.8L1.3 3.5L-1.3 3.5L-1.3 0.8L-3.7 -0.6L-2.3 -2.9L0 -1.6L2.3 -2.9L3.7 -0.6Z" transform="translate(846 358)"></path><path d="M1.6 0.9L1.6 4.2L-1.6 4.2L-1.6 0.9L-4.4 -0.7L-2.8 -3.5L0 -1.9L2.8 -3.5L4.4 -0.7Z" transform="translate(487 163)"></path><path d="M1.6 0.9L1.6 4.2L-1.6 4.2L-1.6 0.9L-4.4 -0.7L-2.8 -3.5L0 -1.9L2.8 -3.5L4.4 -0.7Z" transform="translate(724 418)"></path><path d="M2.2 1.2L2.2 5.6L-2.2 5.6L-2.2 1.2L-5.9 -0.9L-3.7 -4.7L0 -2.5L3.7 -4.7L5.9 -0.9Z" transform="translate(144 2)"></path><path d="M1.6 0.9L1.6 4.2L-1.6 4.2L-1.6 0.9L-4.4 -0.7L-2.8 -3.5L0 -1.9L2.8 -3.5L4.4 -0.7Z" transform="translate(617 86)"></path><path d="M1.9 1.1L1.9 4.9L-1.9 4.9L-1.9 1.1L-5.2 -0.8L-3.3 -4.1L0 -2.2L3.3 -4.1L5.2 -0.8Z" transform="translate(380 186)"></path><path d="M2.2 1.2L2.2 5.6L-2.2 5.6L-2.2 1.2L-5.9 -0.9L-3.7 -4.7L0 -2.5L3.7 -4.7L5.9 -0.9Z" transform="translate(166 333)"></path><path d="M2.7 1.6L2.7 7L-2.7 7L-2.7 1.6L-7.4 -1.1L-4.7 -5.8L0 -3.1L4.7 -5.8L7.4 -1.1Z" transform="translate(415 226)"></path><path d="M1.6 0.9L1.6 4.2L-1.6 4.2L-1.6 0.9L-4.4 -0.7L-2.8 -3.5L0 -1.9L2.8 -3.5L4.4 -0.7Z" transform="translate(866 2)"></path><path d="M1.6 0.9L1.6 4.2L-1.6 4.2L-1.6 0.9L-4.4 -0.7L-2.8 -3.5L0 -1.9L2.8 -3.5L4.4 -0.7Z" transform="translate(458 414)"></path><path d="M2.4 1.4L2.4 6.3L-2.4 6.3L-2.4 1.4L-6.6 -1L-4.2 -5.2L0 -2.8L4.2 -5.2L6.6 -1Z" transform="translate(716 338)"></path><path d="M1.9 1.1L1.9 4.9L-1.9 4.9L-1.9 1.1L-5.2 -0.8L-3.3 -4.1L0 -2.2L3.3 -4.1L5.2 -0.8Z" transform="translate(507 395)"></path><path d="M2.2 1.2L2.2 5.6L-2.2 5.6L-2.2 1.2L-5.9 -0.9L-3.7 -4.7L0 -2.5L3.7 -4.7L5.9 -0.9Z" transform="translate(349 71)"></path></g></svg>