<svg id="visual" viewBox="0 0 900 450" width="900" height="450" xmlns="http://www.w3.org/2000/svg" xmlns:xlink="http://www.w3.org/1999/xlink" version="1.1"><rect x="0" y="0" width="900" height="450" fill="#001220"></rect><defs><linearGradient id="grad1_0" x1="50%" y1="0%" x2="100%" y2="100%"><stop offset="10%" stop-color="#001220" stop-opacity="1"></stop><stop offset="90%" stop-color="#001220" stop-opacity="1"></stop></linearGradient></defs><defs><linearGradient id="grad2_0" x1="0%" y1="0%" x2="50%" y2="100%"><stop offset="10%" stop-color="#001220" stop-opacity="1"></stop><stop offset="90%" stop-color="#001220" stop-opacity="1"></stop></linearGradient></defs><g transform="translate(900, 0)"><path d="M0 270C-29.5 254.9 -59 239.8 -95.3 230C-131.6 220.3 -174.7 215.9 -190.9 190.9C-207.1 165.9 -196.4 120.2 -205.1 85C-213.8 49.7 -241.9 24.8 -270 0L0 0Z" fill="#FBAE3C"></path></g><g transform="translate(0, 450)"><path d="M0 -270C11.7 -213.5 23.4 -157 63.5 -153.4C103.6 -149.7 172.1 -199 190.9 -190.9C209.8 -182.9 178.9 -117.5 183.9 -76.2C188.8 -34.8 229.4 -17.4 270 0L0 0Z" fill="#FBAE3C"></path></g></svg>