<svg id="visual" viewBox="0 0 960 540" width="960" height="540" xmlns="http://www.w3.org/2000/svg" xmlns:xlink="http://www.w3.org/1999/xlink" version="1.1"><path d="M738 540L786 540L786 517L911 517L911 493L853 493L853 470L930 470L930 446L834 446L834 423L882 423L882 399L767 399L767 376L901 376L901 352L863 352L863 329L805 329L805 305L921 305L921 282L796 282L796 258L777 258L777 235L815 235L815 211L844 211L844 188L863 188L863 164L777 164L777 141L786 141L786 117L815 117L815 94L796 94L796 70L844 70L844 47L921 47L921 23L777 23L777 0L960 0L960 23L960 23L960 47L960 47L960 70L960 70L960 94L960 94L960 117L960 117L960 141L960 141L960 164L960 164L960 188L960 188L960 211L960 211L960 235L960 235L960 258L960 258L960 282L960 282L960 305L960 305L960 329L960 329L960 352L960 352L960 376L960 376L960 399L960 399L960 423L960 423L960 446L960 446L960 470L960 470L960 493L960 493L960 517L960 517L960 540L960 540Z" fill="#69f6fa"></path><path d="M729 540L777 540L777 517L901 517L901 493L748 493L748 470L815 470L815 446L757 446L757 423L767 423L767 399L709 399L709 376L805 376L805 352L834 352L834 329L690 329L690 305L892 305L892 282L767 282L767 258L661 258L661 235L786 235L786 211L834 211L834 188L805 188L805 164L748 164L748 141L709 141L709 117L729 117L729 94L671 94L671 70L748 70L748 47L873 47L873 23L700 23L700 0L778 0L778 23L922 23L922 47L845 47L845 70L797 70L797 94L816 94L816 117L787 117L787 141L778 141L778 164L864 164L864 188L845 188L845 211L816 211L816 235L778 235L778 258L797 258L797 282L922 282L922 305L806 305L806 329L864 329L864 352L902 352L902 376L768 376L768 399L883 399L883 423L835 423L835 446L931 446L931 470L854 470L854 493L912 493L912 517L787 517L787 540L739 540Z" fill="#4fecfd"></path><path d="M729 540L729 540L729 517L892 517L892 493L729 493L729 470L748 470L748 446L700 446L700 423L738 423L738 399L681 399L681 376L786 376L786 352L786 352L786 329L623 329L623 305L844 305L844 282L719 282L719 258L594 258L594 235L738 235L738 211L767 211L767 188L777 188L777 164L729 164L729 141L642 141L642 117L661 117L661 94L652 94L652 70L719 70L719 47L834 47L834 23L661 23L661 0L701 0L701 23L874 23L874 47L749 47L749 70L672 70L672 94L730 94L730 117L710 117L710 141L749 141L749 164L806 164L806 188L835 188L835 211L787 211L787 235L662 235L662 258L768 258L768 282L893 282L893 305L691 305L691 329L835 329L835 352L806 352L806 376L710 376L710 399L768 399L768 423L758 423L758 446L816 446L816 470L749 470L749 493L902 493L902 517L778 517L778 540L730 540Z" fill="#32e2ff"></path><path d="M652 540L700 540L700 517L844 517L844 493L671 493L671 470L681 470L681 446L690 446L690 423L729 423L729 399L642 399L642 376L738 376L738 352L767 352L767 329L575 329L575 305L815 305L815 282L709 282L709 258L585 258L585 235L700 235L700 211L719 211L719 188L757 188L757 164L681 164L681 141L575 141L575 117L633 117L633 94L652 94L652 70L671 70L671 47L777 47L777 23L652 23L652 0L662 0L662 23L835 23L835 47L720 47L720 70L653 70L653 94L662 94L662 117L643 117L643 141L730 141L730 164L778 164L778 188L768 188L768 211L739 211L739 235L595 235L595 258L720 258L720 282L845 282L845 305L624 305L624 329L787 329L787 352L787 352L787 376L682 376L682 399L739 399L739 423L701 423L701 446L749 446L749 470L730 470L730 493L893 493L893 517L730 517L730 540L730 540Z" fill="#0bd7ff"></path><path d="M575 540L604 540L604 517L700 517L700 493L642 493L642 470L604 470L604 446L565 446L565 423L671 423L671 399L556 399L556 376L613 376L613 352L633 352L633 329L537 329L537 305L690 305L690 282L652 282L652 258L556 258L556 235L517 235L517 211L565 211L565 188L642 188L642 164L556 164L556 141L565 141L565 117L546 117L546 94L585 94L585 70L661 70L661 47L690 47L690 23L594 23L594 0L653 0L653 23L778 23L778 47L672 47L672 70L653 70L653 94L634 94L634 117L576 117L576 141L682 141L682 164L758 164L758 188L720 188L720 211L701 211L701 235L586 235L586 258L710 258L710 282L816 282L816 305L576 305L576 329L768 329L768 352L739 352L739 376L643 376L643 399L730 399L730 423L691 423L691 446L682 446L682 470L672 470L672 493L845 493L845 517L701 517L701 540L653 540Z" fill="#00ccff"></path><path d="M498 540L556 540L556 517L681 517L681 493L556 493L556 470L594 470L594 446L527 446L527 423L633 423L633 399L498 399L498 376L565 376L565 352L565 352L565 329L498 329L498 305L671 305L671 282L642 282L642 258L527 258L527 235L489 235L489 211L479 211L479 188L613 188L613 164L469 164L469 141L556 141L556 117L479 117L479 94L489 94L489 70L585 70L585 47L604 47L604 23L517 23L517 0L595 0L595 23L691 23L691 47L662 47L662 70L586 70L586 94L547 94L547 117L566 117L566 141L557 141L557 164L643 164L643 188L566 188L566 211L518 211L518 235L557 235L557 258L653 258L653 282L691 282L691 305L538 305L538 329L634 329L634 352L614 352L614 376L557 376L557 399L672 399L672 423L566 423L566 446L605 446L605 470L643 470L643 493L701 493L701 517L605 517L605 540L576 540Z" fill="#00c0ff"></path><path d="M469 540L537 540L537 517L633 517L633 493L546 493L546 470L585 470L585 446L431 446L431 423L623 423L623 399L431 399L431 376L517 376L517 352L546 352L546 329L450 329L450 305L604 305L604 282L575 282L575 258L479 258L479 235L450 235L450 211L469 211L469 188L508 188L508 164L412 164L412 141L460 141L460 117L402 117L402 94L441 94L441 70L527 70L527 47L508 47L508 23L479 23L479 0L518 0L518 23L605 23L605 47L586 47L586 70L490 70L490 94L480 94L480 117L557 117L557 141L470 141L470 164L614 164L614 188L480 188L480 211L490 211L490 235L528 235L528 258L643 258L643 282L672 282L672 305L499 305L499 329L566 329L566 352L566 352L566 376L499 376L499 399L634 399L634 423L528 423L528 446L595 446L595 470L557 470L557 493L682 493L682 517L557 517L557 540L499 540Z" fill="#00b4ff"></path><path d="M431 540L498 540L498 517L575 517L575 493L489 493L489 470L527 470L527 446L383 446L383 423L604 423L604 399L393 399L393 376L479 376L479 352L489 352L489 329L421 329L421 305L585 305L585 282L517 282L517 258L431 258L431 235L441 235L441 211L441 211L441 188L479 188L479 164L345 164L345 141L431 141L431 117L393 117L393 94L402 94L402 70L479 70L479 47L469 47L469 23L412 23L412 0L480 0L480 23L509 23L509 47L528 47L528 70L442 70L442 94L403 94L403 117L461 117L461 141L413 141L413 164L509 164L509 188L470 188L470 211L451 211L451 235L480 235L480 258L576 258L576 282L605 282L605 305L451 305L451 329L547 329L547 352L518 352L518 376L432 376L432 399L624 399L624 423L432 423L432 446L586 446L586 470L547 470L547 493L634 493L634 517L538 517L538 540L470 540Z" fill="#00a7ff"></path><path d="M412 540L441 540L441 517L565 517L565 493L460 493L460 470L469 470L469 446L345 446L345 423L546 423L546 399L354 399L354 376L412 376L412 352L412 352L412 329L354 329L354 305L556 305L556 282L450 282L450 258L393 258L393 235L383 235L383 211L373 211L373 188L402 188L402 164L287 164L287 141L402 141L402 117L325 117L325 94L345 94L345 70L412 70L412 47L460 47L460 23L393 23L393 0L413 0L413 23L470 23L470 47L480 47L480 70L403 70L403 94L394 94L394 117L432 117L432 141L346 141L346 164L480 164L480 188L442 188L442 211L442 211L442 235L432 235L432 258L518 258L518 282L586 282L586 305L422 305L422 329L490 329L490 352L480 352L480 376L394 376L394 399L605 399L605 423L384 423L384 446L528 446L528 470L490 470L490 493L576 493L576 517L499 517L499 540L432 540Z" fill="#0099ff"></path><path d="M229 540L162 540L162 517L441 517L441 493L172 493L172 470L412 470L412 446L268 446L268 423L469 423L469 399L201 399L201 376L133 376L133 352L354 352L354 329L287 329L287 305L345 305L345 282L143 282L143 258L268 258L268 235L258 235L258 211L306 211L306 188L124 188L124 164L133 164L133 141L133 141L133 117L191 117L191 94L172 94L172 70L277 70L277 47L316 47L316 23L287 23L287 0L394 0L394 23L461 23L461 47L413 47L413 70L346 70L346 94L326 94L326 117L403 117L403 141L288 141L288 164L403 164L403 188L374 188L374 211L384 211L384 235L394 235L394 258L451 258L451 282L557 282L557 305L355 305L355 329L413 329L413 352L413 352L413 376L355 376L355 399L547 399L547 423L346 423L346 446L470 446L470 470L461 470L461 493L566 493L566 517L442 517L442 540L413 540Z" fill="#008aff"></path><path d="M76 540L114 540L114 517L57 517L57 493L28 493L28 470L105 470L105 446L105 446L105 423L124 423L124 399L37 399L37 376L9 376L9 352L9 352L9 329L76 329L76 305L66 305L66 282L18 282L18 258L9 258L9 235L18 235L18 211L18 211L18 188L9 188L9 164L18 164L18 141L28 141L28 117L47 117L47 94L47 94L47 70L85 70L85 47L28 47L28 23L114 23L114 0L288 0L288 23L317 23L317 47L278 47L278 70L173 70L173 94L192 94L192 117L134 117L134 141L134 141L134 164L125 164L125 188L307 188L307 211L259 211L259 235L269 235L269 258L144 258L144 282L346 282L346 305L288 305L288 329L355 329L355 352L134 352L134 376L202 376L202 399L470 399L470 423L269 423L269 446L413 446L413 470L173 470L173 493L442 493L442 517L163 517L163 540L230 540Z" fill="#0079ff"></path><path d="M0 540L0 540L0 517L0 517L0 493L0 493L0 470L0 470L0 446L0 446L0 423L0 423L0 399L0 399L0 376L0 376L0 352L0 352L0 329L0 329L0 305L0 305L0 282L0 282L0 258L0 258L0 235L0 235L0 211L0 211L0 188L0 188L0 164L0 164L0 141L0 141L0 117L0 117L0 94L0 94L0 70L0 70L0 47L0 47L0 23L0 23L0 0L115 0L115 23L29 23L29 47L86 47L86 70L48 70L48 94L48 94L48 117L29 117L29 141L19 141L19 164L10 164L10 188L19 188L19 211L19 211L19 235L10 235L10 258L19 258L19 282L67 282L67 305L77 305L77 329L10 329L10 352L10 352L10 376L38 376L38 399L125 399L125 423L106 423L106 446L106 446L106 470L29 470L29 493L58 493L58 517L115 517L115 540L77 540Z" fill="#0066ff"></path></svg>