<svg id="visual" viewBox="0 0 960 540" width="960" height="540" xmlns="http://www.w3.org/2000/svg" xmlns:xlink="http://www.w3.org/1999/xlink" version="1.1"><rect x="0" y="0" width="960" height="540" fill="#ffffff"></rect><path d="M0 516L7 516.3C14 516.7 28 517.3 41.8 516.8C55.7 516.3 69.3 514.7 83.2 512.5C97 510.3 111 507.7 125 508.3C139 509 153 513 167 513.7C181 514.3 195 511.7 208.8 509.8C222.7 508 236.3 507 250.2 508C264 509 278 512 292 511.7C306 511.3 320 507.7 334 506.5C348 505.3 362 506.7 375.8 508.3C389.7 510 403.3 512 417.2 511.8C431 511.7 445 509.3 459 507.7C473 506 487 505 501 506.2C515 507.3 529 510.7 542.8 512.2C556.7 513.7 570.3 513.3 584.2 513.7C598 514 612 515 626 513.8C640 512.7 654 509.3 668 508.5C682 507.7 696 509.3 709.8 509.7C723.7 510 737.3 509 751.2 508.8C765 508.7 779 509.3 793 510C807 510.7 821 511.3 835 512.8C849 514.3 863 516.7 876.8 516.7C890.7 516.7 904.3 514.3 918.2 514.2C932 514 946 516 953 517L960 518L960 541L953 541C946 541 932 541 918.2 541C904.3 541 890.7 541 876.8 541C863 541 849 541 835 541C821 541 807 541 793 541C779 541 765 541 751.2 541C737.3 541 723.7 541 709.8 541C696 541 682 541 668 541C654 541 640 541 626 541C612 541 598 541 584.2 541C570.3 541 556.7 541 542.8 541C529 541 515 541 501 541C487 541 473 541 459 541C445 541 431 541 417.2 541C403.3 541 389.7 541 375.8 541C362 541 348 541 334 541C320 541 306 541 292 541C278 541 264 541 250.2 541C236.3 541 222.7 541 208.8 541C195 541 181 541 167 541C153 541 139 541 125 541C111 541 97 541 83.2 541C69.3 541 55.7 541 41.8 541C28 541 14 541 7 541L0 541Z" fill="#fafa69"></path><path d="M0 509L7 509.5C14 510 28 511 41.8 512.5C55.7 514 69.3 516 83.2 515.7C97 515.3 111 512.7 125 512C139 511.3 153 512.7 167 512.3C181 512 195 510 208.8 509.2C222.7 508.3 236.3 508.7 250.2 509.5C264 510.3 278 511.7 292 513.7C306 515.7 320 518.3 334 518.8C348 519.3 362 517.7 375.8 516.8C389.7 516 403.3 516 417.2 515C431 514 445 512 459 511.5C473 511 487 512 501 513.3C515 514.7 529 516.3 542.8 517.7C556.7 519 570.3 520 584.2 519.7C598 519.3 612 517.7 626 515.3C640 513 654 510 668 510.5C682 511 696 515 709.8 516.2C723.7 517.3 737.3 515.7 751.2 514C765 512.3 779 510.7 793 510.5C807 510.3 821 511.7 835 512.8C849 514 863 515 876.8 515C890.7 515 904.3 514 918.2 514.3C932 514.7 946 516.3 953 517.2L960 518L960 541L953 541C946 541 932 541 918.2 541C904.3 541 890.7 541 876.8 541C863 541 849 541 835 541C821 541 807 541 793 541C779 541 765 541 751.2 541C737.3 541 723.7 541 709.8 541C696 541 682 541 668 541C654 541 640 541 626 541C612 541 598 541 584.2 541C570.3 541 556.7 541 542.8 541C529 541 515 541 501 541C487 541 473 541 459 541C445 541 431 541 417.2 541C403.3 541 389.7 541 375.8 541C362 541 348 541 334 541C320 541 306 541 292 541C278 541 264 541 250.2 541C236.3 541 222.7 541 208.8 541C195 541 181 541 167 541C153 541 139 541 125 541C111 541 97 541 83.2 541C69.3 541 55.7 541 41.8 541C28 541 14 541 7 541L0 541Z" fill="#ffe65a"></path><path d="M0 514L7 515.3C14 516.7 28 519.3 41.8 520C55.7 520.7 69.3 519.3 83.2 519.3C97 519.3 111 520.7 125 519.7C139 518.7 153 515.3 167 513.3C181 511.3 195 510.7 208.8 511.2C222.7 511.7 236.3 513.3 250.2 513.5C264 513.7 278 512.3 292 512.2C306 512 320 513 334 513.5C348 514 362 514 375.8 514.8C389.7 515.7 403.3 517.3 417.2 518.7C431 520 445 521 459 520.7C473 520.3 487 518.7 501 518.3C515 518 529 519 542.8 517.7C556.7 516.3 570.3 512.7 584.2 512.2C598 511.7 612 514.3 626 515.5C640 516.7 654 516.3 668 515.3C682 514.3 696 512.7 709.8 512.5C723.7 512.3 737.3 513.7 751.2 514.5C765 515.3 779 515.7 793 515C807 514.3 821 512.7 835 513C849 513.3 863 515.7 876.8 516.5C890.7 517.3 904.3 516.7 918.2 515.7C932 514.7 946 513.3 953 512.7L960 512L960 541L953 541C946 541 932 541 918.2 541C904.3 541 890.7 541 876.8 541C863 541 849 541 835 541C821 541 807 541 793 541C779 541 765 541 751.2 541C737.3 541 723.7 541 709.8 541C696 541 682 541 668 541C654 541 640 541 626 541C612 541 598 541 584.2 541C570.3 541 556.7 541 542.8 541C529 541 515 541 501 541C487 541 473 541 459 541C445 541 431 541 417.2 541C403.3 541 389.7 541 375.8 541C362 541 348 541 334 541C320 541 306 541 292 541C278 541 264 541 250.2 541C236.3 541 222.7 541 208.8 541C195 541 181 541 167 541C153 541 139 541 125 541C111 541 97 541 83.2 541C69.3 541 55.7 541 41.8 541C28 541 14 541 7 541L0 541Z" fill="#ffd24f"></path><path d="M0 521L7 521.2C14 521.3 28 521.7 41.8 522C55.7 522.3 69.3 522.7 83.2 522.7C97 522.7 111 522.3 125 522.2C139 522 153 522 167 522C181 522 195 522 208.8 520.7C222.7 519.3 236.3 516.7 250.2 515.3C264 514 278 514 292 514C306 514 320 514 334 515.7C348 517.3 362 520.7 375.8 520.5C389.7 520.3 403.3 516.7 417.2 516.2C431 515.7 445 518.3 459 518.5C473 518.7 487 516.3 501 515.5C515 514.7 529 515.3 542.8 515.8C556.7 516.3 570.3 516.7 584.2 516.7C598 516.7 612 516.3 626 516.8C640 517.3 654 518.7 668 518.7C682 518.7 696 517.3 709.8 516.3C723.7 515.3 737.3 514.7 751.2 515.7C765 516.7 779 519.3 793 519.2C807 519 821 516 835 514.5C849 513 863 513 876.8 513C890.7 513 904.3 513 918.2 514.2C932 515.3 946 517.7 953 518.8L960 520L960 541L953 541C946 541 932 541 918.2 541C904.3 541 890.7 541 876.8 541C863 541 849 541 835 541C821 541 807 541 793 541C779 541 765 541 751.2 541C737.3 541 723.7 541 709.8 541C696 541 682 541 668 541C654 541 640 541 626 541C612 541 598 541 584.2 541C570.3 541 556.7 541 542.8 541C529 541 515 541 501 541C487 541 473 541 459 541C445 541 431 541 417.2 541C403.3 541 389.7 541 375.8 541C362 541 348 541 334 541C320 541 306 541 292 541C278 541 264 541 250.2 541C236.3 541 222.7 541 208.8 541C195 541 181 541 167 541C153 541 139 541 125 541C111 541 97 541 83.2 541C69.3 541 55.7 541 41.8 541C28 541 14 541 7 541L0 541Z" fill="#ffbe49"></path><path d="M0 520L7 520.8C14 521.7 28 523.3 41.8 523.5C55.7 523.7 69.3 522.3 83.2 522C97 521.7 111 522.3 125 522.8C139 523.3 153 523.7 167 523.2C181 522.7 195 521.3 208.8 520.2C222.7 519 236.3 518 250.2 518.3C264 518.7 278 520.3 292 521C306 521.7 320 521.3 334 521C348 520.7 362 520.3 375.8 519.7C389.7 519 403.3 518 417.2 517.3C431 516.7 445 516.3 459 517.7C473 519 487 522 501 522.8C515 523.7 529 522.3 542.8 521C556.7 519.7 570.3 518.3 584.2 518.8C598 519.3 612 521.7 626 521.5C640 521.3 654 518.7 668 517.8C682 517 696 518 709.8 519.5C723.7 521 737.3 523 751.2 523.8C765 524.7 779 524.3 793 524C807 523.7 821 523.3 835 523.2C849 523 863 523 876.8 522.3C890.7 521.7 904.3 520.3 918.2 520C932 519.7 946 520.3 953 520.7L960 521L960 541L953 541C946 541 932 541 918.2 541C904.3 541 890.7 541 876.8 541C863 541 849 541 835 541C821 541 807 541 793 541C779 541 765 541 751.2 541C737.3 541 723.7 541 709.8 541C696 541 682 541 668 541C654 541 640 541 626 541C612 541 598 541 584.2 541C570.3 541 556.7 541 542.8 541C529 541 515 541 501 541C487 541 473 541 459 541C445 541 431 541 417.2 541C403.3 541 389.7 541 375.8 541C362 541 348 541 334 541C320 541 306 541 292 541C278 541 264 541 250.2 541C236.3 541 222.7 541 208.8 541C195 541 181 541 167 541C153 541 139 541 125 541C111 541 97 541 83.2 541C69.3 541 55.7 541 41.8 541C28 541 14 541 7 541L0 541Z" fill="#ffa947"></path><path d="M0 526L7 525.5C14 525 28 524 41.8 524.2C55.7 524.3 69.3 525.7 83.2 525.7C97 525.7 111 524.3 125 523.2C139 522 153 521 167 520.7C181 520.3 195 520.7 208.8 520.7C222.7 520.7 236.3 520.3 250.2 521.2C264 522 278 524 292 524C306 524 320 522 334 521.5C348 521 362 522 375.8 522.7C389.7 523.3 403.3 523.7 417.2 523.2C431 522.7 445 521.3 459 521.2C473 521 487 522 501 522.2C515 522.3 529 521.7 542.8 521C556.7 520.3 570.3 519.7 584.2 519.7C598 519.7 612 520.3 626 520.3C640 520.3 654 519.7 668 519.8C682 520 696 521 709.8 521.7C723.7 522.3 737.3 522.7 751.2 522C765 521.3 779 519.7 793 519.3C807 519 821 520 835 521.2C849 522.3 863 523.7 876.8 523.5C890.7 523.3 904.3 521.7 918.2 521.7C932 521.7 946 523.3 953 524.2L960 525L960 541L953 541C946 541 932 541 918.2 541C904.3 541 890.7 541 876.8 541C863 541 849 541 835 541C821 541 807 541 793 541C779 541 765 541 751.2 541C737.3 541 723.7 541 709.8 541C696 541 682 541 668 541C654 541 640 541 626 541C612 541 598 541 584.2 541C570.3 541 556.7 541 542.8 541C529 541 515 541 501 541C487 541 473 541 459 541C445 541 431 541 417.2 541C403.3 541 389.7 541 375.8 541C362 541 348 541 334 541C320 541 306 541 292 541C278 541 264 541 250.2 541C236.3 541 222.7 541 208.8 541C195 541 181 541 167 541C153 541 139 541 125 541C111 541 97 541 83.2 541C69.3 541 55.7 541 41.8 541C28 541 14 541 7 541L0 541Z" fill="#ff9548"></path><path d="M0 525L7 525.2C14 525.3 28 525.7 41.8 526C55.7 526.3 69.3 526.7 83.2 526.7C97 526.7 111 526.3 125 525.2C139 524 153 522 167 522.2C181 522.3 195 524.7 208.8 525.3C222.7 526 236.3 525 250.2 524.2C264 523.3 278 522.7 292 522C306 521.3 320 520.7 334 520.5C348 520.3 362 520.7 375.8 521C389.7 521.3 403.3 521.7 417.2 522.5C431 523.3 445 524.7 459 525.2C473 525.7 487 525.3 501 525C515 524.7 529 524.3 542.8 523.8C556.7 523.3 570.3 522.7 584.2 523C598 523.3 612 524.7 626 525.2C640 525.7 654 525.3 668 525C682 524.7 696 524.3 709.8 524.5C723.7 524.7 737.3 525.3 751.2 525.5C765 525.7 779 525.3 793 524.5C807 523.7 821 522.3 835 521.7C849 521 863 521 876.8 520.8C890.7 520.7 904.3 520.3 918.2 520.5C932 520.7 946 521.3 953 521.7L960 522L960 541L953 541C946 541 932 541 918.2 541C904.3 541 890.7 541 876.8 541C863 541 849 541 835 541C821 541 807 541 793 541C779 541 765 541 751.2 541C737.3 541 723.7 541 709.8 541C696 541 682 541 668 541C654 541 640 541 626 541C612 541 598 541 584.2 541C570.3 541 556.7 541 542.8 541C529 541 515 541 501 541C487 541 473 541 459 541C445 541 431 541 417.2 541C403.3 541 389.7 541 375.8 541C362 541 348 541 334 541C320 541 306 541 292 541C278 541 264 541 250.2 541C236.3 541 222.7 541 208.8 541C195 541 181 541 167 541C153 541 139 541 125 541C111 541 97 541 83.2 541C69.3 541 55.7 541 41.8 541C28 541 14 541 7 541L0 541Z" fill="#fd814b"></path><path d="M0 528L7 528.3C14 528.7 28 529.3 41.8 529C55.7 528.7 69.3 527.3 83.2 526.3C97 525.3 111 524.7 125 525.3C139 526 153 528 167 528.7C181 529.3 195 528.7 208.8 527.7C222.7 526.7 236.3 525.3 250.2 524.7C264 524 278 524 292 523.8C306 523.7 320 523.3 334 523.7C348 524 362 525 375.8 525C389.7 525 403.3 524 417.2 524.7C431 525.3 445 527.7 459 528C473 528.3 487 526.7 501 525.8C515 525 529 525 542.8 525.7C556.7 526.3 570.3 527.7 584.2 528.2C598 528.7 612 528.3 626 528.5C640 528.7 654 529.3 668 529.5C682 529.7 696 529.3 709.8 528.8C723.7 528.3 737.3 527.7 751.2 527.5C765 527.3 779 527.7 793 528.2C807 528.7 821 529.3 835 528.7C849 528 863 526 876.8 525C890.7 524 904.3 524 918.2 524.2C932 524.3 946 524.7 953 524.8L960 525L960 541L953 541C946 541 932 541 918.2 541C904.3 541 890.7 541 876.8 541C863 541 849 541 835 541C821 541 807 541 793 541C779 541 765 541 751.2 541C737.3 541 723.7 541 709.8 541C696 541 682 541 668 541C654 541 640 541 626 541C612 541 598 541 584.2 541C570.3 541 556.7 541 542.8 541C529 541 515 541 501 541C487 541 473 541 459 541C445 541 431 541 417.2 541C403.3 541 389.7 541 375.8 541C362 541 348 541 334 541C320 541 306 541 292 541C278 541 264 541 250.2 541C236.3 541 222.7 541 208.8 541C195 541 181 541 167 541C153 541 139 541 125 541C111 541 97 541 83.2 541C69.3 541 55.7 541 41.8 541C28 541 14 541 7 541L0 541Z" fill="#f76d50"></path><path d="M0 532L7 531.2C14 530.3 28 528.7 41.8 527.8C55.7 527 69.3 527 83.2 527.7C97 528.3 111 529.7 125 530.3C139 531 153 531 167 530.7C181 530.3 195 529.7 208.8 529.2C222.7 528.7 236.3 528.3 250.2 528.2C264 528 278 528 292 528.2C306 528.3 320 528.7 334 529.2C348 529.7 362 530.3 375.8 530.2C389.7 530 403.3 529 417.2 528.3C431 527.7 445 527.3 459 527.8C473 528.3 487 529.7 501 529.8C515 530 529 529 542.8 528.7C556.7 528.3 570.3 528.7 584.2 529C598 529.3 612 529.7 626 529.8C640 530 654 530 668 529.5C682 529 696 528 709.8 528C723.7 528 737.3 529 751.2 529.3C765 529.7 779 529.3 793 529C807 528.7 821 528.3 835 528.7C849 529 863 530 876.8 530.2C890.7 530.3 904.3 529.7 918.2 529C932 528.3 946 527.7 953 527.3L960 527L960 541L953 541C946 541 932 541 918.2 541C904.3 541 890.7 541 876.8 541C863 541 849 541 835 541C821 541 807 541 793 541C779 541 765 541 751.2 541C737.3 541 723.7 541 709.8 541C696 541 682 541 668 541C654 541 640 541 626 541C612 541 598 541 584.2 541C570.3 541 556.7 541 542.8 541C529 541 515 541 501 541C487 541 473 541 459 541C445 541 431 541 417.2 541C403.3 541 389.7 541 375.8 541C362 541 348 541 334 541C320 541 306 541 292 541C278 541 264 541 250.2 541C236.3 541 222.7 541 208.8 541C195 541 181 541 167 541C153 541 139 541 125 541C111 541 97 541 83.2 541C69.3 541 55.7 541 41.8 541C28 541 14 541 7 541L0 541Z" fill="#ee5a55"></path><path d="M0 531L7 531C14 531 28 531 41.8 531C55.7 531 69.3 531 83.2 530.7C97 530.3 111 529.7 125 529.3C139 529 153 529 167 529.3C181 529.7 195 530.3 208.8 530.3C222.7 530.3 236.3 529.7 250.2 529.8C264 530 278 531 292 531.5C306 532 320 532 334 532.2C348 532.3 362 532.7 375.8 532.2C389.7 531.7 403.3 530.3 417.2 529.8C431 529.3 445 529.7 459 530C473 530.3 487 530.7 501 531C515 531.3 529 531.7 542.8 531.8C556.7 532 570.3 532 584.2 532C598 532 612 532 626 531.3C640 530.7 654 529.3 668 529.2C682 529 696 530 709.8 530.7C723.7 531.3 737.3 531.7 751.2 531.5C765 531.3 779 530.7 793 530.5C807 530.3 821 530.7 835 530.5C849 530.3 863 529.7 876.8 529.5C890.7 529.3 904.3 529.7 918.2 530.2C932 530.7 946 531.3 953 531.7L960 532L960 541L953 541C946 541 932 541 918.2 541C904.3 541 890.7 541 876.8 541C863 541 849 541 835 541C821 541 807 541 793 541C779 541 765 541 751.2 541C737.3 541 723.7 541 709.8 541C696 541 682 541 668 541C654 541 640 541 626 541C612 541 598 541 584.2 541C570.3 541 556.7 541 542.8 541C529 541 515 541 501 541C487 541 473 541 459 541C445 541 431 541 417.2 541C403.3 541 389.7 541 375.8 541C362 541 348 541 334 541C320 541 306 541 292 541C278 541 264 541 250.2 541C236.3 541 222.7 541 208.8 541C195 541 181 541 167 541C153 541 139 541 125 541C111 541 97 541 83.2 541C69.3 541 55.7 541 41.8 541C28 541 14 541 7 541L0 541Z" fill="#e3475b"></path><path d="M0 534L7 534C14 534 28 534 41.8 533.5C55.7 533 69.3 532 83.2 532C97 532 111 533 125 533.2C139 533.3 153 532.7 167 532.5C181 532.3 195 532.7 208.8 532.8C222.7 533 236.3 533 250.2 532.8C264 532.7 278 532.3 292 532.7C306 533 320 534 334 534.3C348 534.7 362 534.3 375.8 534C389.7 533.7 403.3 533.3 417.2 533.2C431 533 445 533 459 533C473 533 487 533 501 533.2C515 533.3 529 533.7 542.8 533.8C556.7 534 570.3 534 584.2 534C598 534 612 534 626 533.7C640 533.3 654 532.7 668 532.7C682 532.7 696 533.3 709.8 533.3C723.7 533.3 737.3 532.7 751.2 532.5C765 532.3 779 532.7 793 532.8C807 533 821 533 835 532.8C849 532.7 863 532.3 876.8 532C890.7 531.7 904.3 531.3 918.2 531.3C932 531.3 946 531.7 953 531.8L960 532L960 541L953 541C946 541 932 541 918.2 541C904.3 541 890.7 541 876.8 541C863 541 849 541 835 541C821 541 807 541 793 541C779 541 765 541 751.2 541C737.3 541 723.7 541 709.8 541C696 541 682 541 668 541C654 541 640 541 626 541C612 541 598 541 584.2 541C570.3 541 556.7 541 542.8 541C529 541 515 541 501 541C487 541 473 541 459 541C445 541 431 541 417.2 541C403.3 541 389.7 541 375.8 541C362 541 348 541 334 541C320 541 306 541 292 541C278 541 264 541 250.2 541C236.3 541 222.7 541 208.8 541C195 541 181 541 167 541C153 541 139 541 125 541C111 541 97 541 83.2 541C69.3 541 55.7 541 41.8 541C28 541 14 541 7 541L0 541Z" fill="#d63562"></path><path d="M0 535L7 535.2C14 535.3 28 535.7 41.8 535.5C55.7 535.3 69.3 534.7 83.2 534.5C97 534.3 111 534.7 125 535C139 535.3 153 535.7 167 535.8C181 536 195 536 208.8 535.7C222.7 535.3 236.3 534.7 250.2 534.5C264 534.3 278 534.7 292 535C306 535.3 320 535.7 334 535.8C348 536 362 536 375.8 535.7C389.7 535.3 403.3 534.7 417.2 534.3C431 534 445 534 459 534.2C473 534.3 487 534.7 501 534.8C515 535 529 535 542.8 535C556.7 535 570.3 535 584.2 535.2C598 535.3 612 535.7 626 535.5C640 535.3 654 534.7 668 534.5C682 534.3 696 534.7 709.8 535C723.7 535.3 737.3 535.7 751.2 535.7C765 535.7 779 535.3 793 535.2C807 535 821 535 835 534.8C849 534.7 863 534.3 876.8 534.2C890.7 534 904.3 534 918.2 534.2C932 534.3 946 534.7 953 534.8L960 535L960 541L953 541C946 541 932 541 918.2 541C904.3 541 890.7 541 876.8 541C863 541 849 541 835 541C821 541 807 541 793 541C779 541 765 541 751.2 541C737.3 541 723.7 541 709.8 541C696 541 682 541 668 541C654 541 640 541 626 541C612 541 598 541 584.2 541C570.3 541 556.7 541 542.8 541C529 541 515 541 501 541C487 541 473 541 459 541C445 541 431 541 417.2 541C403.3 541 389.7 541 375.8 541C362 541 348 541 334 541C320 541 306 541 292 541C278 541 264 541 250.2 541C236.3 541 222.7 541 208.8 541C195 541 181 541 167 541C153 541 139 541 125 541C111 541 97 541 83.2 541C69.3 541 55.7 541 41.8 541C28 541 14 541 7 541L0 541Z" fill="#c62368"></path></svg>