<svg id="visual" viewBox="0 0 900 450" width="900" height="450" xmlns="http://www.w3.org/2000/svg" xmlns:xlink="http://www.w3.org/1999/xlink" version="1.1"><g stroke-width="1" stroke-linejoin="bevel"><path d="M468.9 243L404.1 283L487.9 288Z" fill="#005b9e" stroke="#005b9e"></path><path d="M468.9 243L405.1 209L404.1 283Z" fill="#000000" stroke="#000000"></path><path d="M404.1 283L410.1 368L487.9 288Z" fill="#098ed8" stroke="#098ed8"></path><path d="M410.1 368L489.9 388L487.9 288Z" fill="#098ed8" stroke="#098ed8"></path><path d="M314.3 244L323.3 296L404.1 283Z" fill="#067dc5" stroke="#067dc5"></path><path d="M404.1 283L323.3 296L410.1 368Z" fill="#067dc5" stroke="#067dc5"></path><path d="M489.9 388L551.7 353L487.9 288Z" fill="#0eb3ff" stroke="#0eb3ff"></path><path d="M487.9 288L563.7 217L468.9 243Z" fill="#098ed8" stroke="#098ed8"></path><path d="M589.7 296L563.7 217L487.9 288Z" fill="#036cb1" stroke="#036cb1"></path><path d="M502.9 137L411.1 134L405.1 209Z" fill="#098ed8" stroke="#098ed8"></path><path d="M405.1 209L314.3 244L404.1 283Z" fill="#036cb1" stroke="#036cb1"></path><path d="M551.7 353L589.7 296L487.9 288Z" fill="#0ba1ec" stroke="#0ba1ec"></path><path d="M323.3 296L331.3 372L410.1 368Z" fill="#0eb3ff" stroke="#0eb3ff"></path><path d="M410.1 368L418.1 450L489.9 388Z" fill="#005b9e" stroke="#005b9e"></path><path d="M229.5 307L331.3 372L323.3 296Z" fill="#005b9e" stroke="#005b9e"></path><path d="M502.9 137L405.1 209L468.9 243Z" fill="#098ed8" stroke="#098ed8"></path><path d="M405.1 209L307.3 168L314.3 244Z" fill="#00498a" stroke="#00498a"></path><path d="M558.7 167L502.9 137L468.9 243Z" fill="#098ed8" stroke="#098ed8"></path><path d="M563.7 217L558.7 167L468.9 243Z" fill="#0ba1ec" stroke="#0ba1ec"></path><path d="M654.5 161L558.7 167L563.7 217Z" fill="#036cb1" stroke="#036cb1"></path><path d="M337.3 450L418.1 450L410.1 368Z" fill="#098ed8" stroke="#098ed8"></path><path d="M489.9 388L573.7 450L551.7 353Z" fill="#036cb1" stroke="#036cb1"></path><path d="M418.1 450L474.9 450L489.9 388Z" fill="#067dc5" stroke="#067dc5"></path><path d="M411.1 134L307.3 168L405.1 209Z" fill="#002963" stroke="#002963"></path><path d="M502.9 137L487.9 94L411.1 134Z" fill="#001a51" stroke="#001a51"></path><path d="M411.1 134L318.3 78L307.3 168Z" fill="#001a51" stroke="#001a51"></path><path d="M582.7 61L487.9 94L502.9 137Z" fill="#0ba1ec" stroke="#0ba1ec"></path><path d="M551.7 353L644.5 314L589.7 296Z" fill="#002963" stroke="#002963"></path><path d="M589.7 296L664.5 210L563.7 217Z" fill="#001a51" stroke="#001a51"></path><path d="M652.5 378L644.5 314L551.7 353Z" fill="#002963" stroke="#002963"></path><path d="M247.5 450L337.3 450L331.3 372Z" fill="#0ba1ec" stroke="#0ba1ec"></path><path d="M331.3 372L337.3 450L410.1 368Z" fill="#001a51" stroke="#001a51"></path><path d="M487.9 94L404.1 76L411.1 134Z" fill="#0ba1ec" stroke="#0ba1ec"></path><path d="M474.9 450L573.7 450L489.9 388Z" fill="#001a51" stroke="#001a51"></path><path d="M231.5 233L229.5 307L314.3 244Z" fill="#003976" stroke="#003976"></path><path d="M314.3 244L229.5 307L323.3 296Z" fill="#000000" stroke="#000000"></path><path d="M225.5 170L231.5 233L307.3 168Z" fill="#001a51" stroke="#001a51"></path><path d="M307.3 168L231.5 233L314.3 244Z" fill="#098ed8" stroke="#098ed8"></path><path d="M573.7 450L652.5 378L551.7 353Z" fill="#003976" stroke="#003976"></path><path d="M738.4 237L664.5 210L644.5 314Z" fill="#001a51" stroke="#001a51"></path><path d="M644.5 314L664.5 210L589.7 296Z" fill="#005b9e" stroke="#005b9e"></path><path d="M558.7 167L582.7 61L502.9 137Z" fill="#036cb1" stroke="#036cb1"></path><path d="M229.5 307L229.5 373L331.3 372Z" fill="#002963" stroke="#002963"></path><path d="M404.1 76L318.3 78L411.1 134Z" fill="#00498a" stroke="#00498a"></path><path d="M664.5 210L654.5 161L563.7 217Z" fill="#000000" stroke="#000000"></path><path d="M260.5 90L225.5 170L307.3 168Z" fill="#067dc5" stroke="#067dc5"></path><path d="M162.6 291L183.6 366L229.5 307Z" fill="#098ed8" stroke="#098ed8"></path><path d="M229.5 307L183.6 366L229.5 373Z" fill="#002963" stroke="#002963"></path><path d="M654.5 161L582.7 61L558.7 167Z" fill="#00498a" stroke="#00498a"></path><path d="M471.9 0L430.1 0L404.1 76Z" fill="#036cb1" stroke="#036cb1"></path><path d="M404.1 76L308.3 0L318.3 78Z" fill="#000000" stroke="#000000"></path><path d="M229.5 373L247.5 450L331.3 372Z" fill="#005b9e" stroke="#005b9e"></path><path d="M318.3 78L260.5 90L307.3 168Z" fill="#036cb1" stroke="#036cb1"></path><path d="M162.6 291L229.5 307L231.5 233Z" fill="#098ed8" stroke="#098ed8"></path><path d="M229.5 373L173.6 450L247.5 450Z" fill="#098ed8" stroke="#098ed8"></path><path d="M573.7 450L666.5 450L652.5 378Z" fill="#003976" stroke="#003976"></path><path d="M741.4 369L738.4 300L644.5 314Z" fill="#00498a" stroke="#00498a"></path><path d="M471.9 0L404.1 76L487.9 94Z" fill="#001a51" stroke="#001a51"></path><path d="M318.3 78L308.3 0L260.5 90Z" fill="#0ba1ec" stroke="#0ba1ec"></path><path d="M582.7 61L471.9 0L487.9 94Z" fill="#0eb3ff" stroke="#0eb3ff"></path><path d="M174.6 141L167.6 233L225.5 170Z" fill="#098ed8" stroke="#098ed8"></path><path d="M225.5 170L167.6 233L231.5 233Z" fill="#005b9e" stroke="#005b9e"></path><path d="M167.6 233L162.6 291L231.5 233Z" fill="#00498a" stroke="#00498a"></path><path d="M741.4 369L644.5 314L652.5 378Z" fill="#005b9e" stroke="#005b9e"></path><path d="M664.5 210L747.4 144L654.5 161Z" fill="#000000" stroke="#000000"></path><path d="M654.5 161L655.5 73L582.7 61Z" fill="#00498a" stroke="#00498a"></path><path d="M582.7 61L572.7 0L471.9 0Z" fill="#00498a" stroke="#00498a"></path><path d="M747.4 144L655.5 73L654.5 161Z" fill="#067dc5" stroke="#067dc5"></path><path d="M738.4 300L738.4 237L644.5 314Z" fill="#067dc5" stroke="#067dc5"></path><path d="M260.5 90L174.6 141L225.5 170Z" fill="#0ba1ec" stroke="#0ba1ec"></path><path d="M167.6 233L94.8 281L162.6 291Z" fill="#0ba1ec" stroke="#0ba1ec"></path><path d="M632.5 0L572.7 0L582.7 61Z" fill="#036cb1" stroke="#036cb1"></path><path d="M730.4 450L741.4 369L652.5 378Z" fill="#002963" stroke="#002963"></path><path d="M809.2 205L747.4 144L738.4 237Z" fill="#036cb1" stroke="#036cb1"></path><path d="M430.1 0L308.3 0L404.1 76Z" fill="#067dc5" stroke="#067dc5"></path><path d="M260.5 90L169.6 91L174.6 141Z" fill="#00498a" stroke="#00498a"></path><path d="M101.8 450L173.6 450L183.6 366Z" fill="#001a51" stroke="#001a51"></path><path d="M183.6 366L173.6 450L229.5 373Z" fill="#098ed8" stroke="#098ed8"></path><path d="M813.2 298L738.4 237L738.4 300Z" fill="#0ba1ec" stroke="#0ba1ec"></path><path d="M738.4 237L747.4 144L664.5 210Z" fill="#0ba1ec" stroke="#0ba1ec"></path><path d="M655.5 73L632.5 0L582.7 61Z" fill="#0ba1ec" stroke="#0ba1ec"></path><path d="M666.5 450L730.4 450L652.5 378Z" fill="#005b9e" stroke="#005b9e"></path><path d="M250.5 0L169.6 91L260.5 90Z" fill="#036cb1" stroke="#036cb1"></path><path d="M174.6 141L101.8 228L167.6 233Z" fill="#002963" stroke="#002963"></path><path d="M753.4 0L632.5 0L655.5 73Z" fill="#001a51" stroke="#001a51"></path><path d="M308.3 0L250.5 0L260.5 90Z" fill="#0eb3ff" stroke="#0eb3ff"></path><path d="M85.8 141L101.8 228L174.6 141Z" fill="#00498a" stroke="#00498a"></path><path d="M162.6 291L78.8 390L183.6 366Z" fill="#0eb3ff" stroke="#0eb3ff"></path><path d="M101.8 228L94.8 281L167.6 233Z" fill="#0ba1ec" stroke="#0ba1ec"></path><path d="M824.2 170L753.4 83L747.4 144Z" fill="#005b9e" stroke="#005b9e"></path><path d="M747.4 144L753.4 83L655.5 73Z" fill="#003976" stroke="#003976"></path><path d="M809.2 393L813.2 298L741.4 369Z" fill="#003976" stroke="#003976"></path><path d="M741.4 369L813.2 298L738.4 300Z" fill="#098ed8" stroke="#098ed8"></path><path d="M813.2 298L809.2 205L738.4 237Z" fill="#0eb3ff" stroke="#0eb3ff"></path><path d="M730.4 450L809.2 393L741.4 369Z" fill="#0ba1ec" stroke="#0ba1ec"></path><path d="M0 371L78.8 390L94.8 281Z" fill="#003976" stroke="#003976"></path><path d="M94.8 281L78.8 390L162.6 291Z" fill="#0eb3ff" stroke="#0eb3ff"></path><path d="M78.8 390L101.8 450L183.6 366Z" fill="#0eb3ff" stroke="#0eb3ff"></path><path d="M169.6 91L85.8 141L174.6 141Z" fill="#000000" stroke="#000000"></path><path d="M0 213L0 288L94.8 281Z" fill="#001a51" stroke="#001a51"></path><path d="M94.8 66L85.8 141L169.6 91Z" fill="#098ed8" stroke="#098ed8"></path><path d="M250.5 0L172.6 0L169.6 91Z" fill="#0eb3ff" stroke="#0eb3ff"></path><path d="M900 233L824.2 170L809.2 205Z" fill="#005b9e" stroke="#005b9e"></path><path d="M809.2 205L824.2 170L747.4 144Z" fill="#002963" stroke="#002963"></path><path d="M900 233L809.2 205L813.2 298Z" fill="#098ed8" stroke="#098ed8"></path><path d="M172.6 0L94.8 66L169.6 91Z" fill="#002963" stroke="#002963"></path><path d="M753.4 83L753.4 0L655.5 73Z" fill="#036cb1" stroke="#036cb1"></path><path d="M821.2 65L753.4 0L753.4 83Z" fill="#0ba1ec" stroke="#0ba1ec"></path><path d="M730.4 450L835.2 450L809.2 393Z" fill="#003976" stroke="#003976"></path><path d="M900 366L900 317L813.2 298Z" fill="#000000" stroke="#000000"></path><path d="M900 130L821.2 65L824.2 170Z" fill="#00498a" stroke="#00498a"></path><path d="M824.2 170L821.2 65L753.4 83Z" fill="#0eb3ff" stroke="#0eb3ff"></path><path d="M0 213L94.8 281L101.8 228Z" fill="#000000" stroke="#000000"></path><path d="M78.8 390L0 450L101.8 450Z" fill="#0eb3ff" stroke="#0eb3ff"></path><path d="M0 213L101.8 228L85.8 141Z" fill="#0eb3ff" stroke="#0eb3ff"></path><path d="M0 131L0 213L85.8 141Z" fill="#067dc5" stroke="#067dc5"></path><path d="M900 366L813.2 298L809.2 393Z" fill="#000000" stroke="#000000"></path><path d="M0 288L0 371L94.8 281Z" fill="#036cb1" stroke="#036cb1"></path><path d="M900 317L900 233L813.2 298Z" fill="#003976" stroke="#003976"></path><path d="M835.2 450L900 366L809.2 393Z" fill="#005b9e" stroke="#005b9e"></path><path d="M172.6 0L70.8 0L94.8 66Z" fill="#00498a" stroke="#00498a"></path><path d="M94.8 66L0 131L85.8 141Z" fill="#0ba1ec" stroke="#0ba1ec"></path><path d="M0 55L0 131L94.8 66Z" fill="#002963" stroke="#002963"></path><path d="M900 233L900 130L824.2 170Z" fill="#002963" stroke="#002963"></path><path d="M821.2 65L835.2 0L753.4 0Z" fill="#098ed8" stroke="#098ed8"></path><path d="M0 371L0 450L78.8 390Z" fill="#067dc5" stroke="#067dc5"></path><path d="M900 63L835.2 0L821.2 65Z" fill="#003976" stroke="#003976"></path><path d="M835.2 450L900 450L900 366Z" fill="#000000" stroke="#000000"></path><path d="M70.8 0L0 55L94.8 66Z" fill="#00498a" stroke="#00498a"></path><path d="M900 130L900 63L821.2 65Z" fill="#005b9e" stroke="#005b9e"></path><path d="M70.8 0L0 0L0 55Z" fill="#000000" stroke="#000000"></path><path d="M900 63L900 0L835.2 0Z" fill="#098ed8" stroke="#098ed8"></path></g></svg>