<svg id="visual" viewBox="0 0 450 900" width="450" height="900" xmlns="http://www.w3.org/2000/svg" xmlns:xlink="http://www.w3.org/1999/xlink" version="1.1"><rect x="0" y="0" width="450" height="900" fill="#FFBB5C"></rect><path d="M0 47L20 47L20 45L39 45L39 88L59 88L59 83L78 83L78 74L98 74L98 48L117 48L117 100L137 100L137 76L157 76L157 79L176 79L176 89L196 89L196 89L215 89L215 52L235 52L235 89L254 89L254 72L274 72L274 84L293 84L293 57L313 57L313 41L333 41L333 37L352 37L352 45L372 45L372 89L391 89L391 52L411 52L411 47L430 47L430 51L450 51L450 103L450 901L450 901L430 901L430 901L411 901L411 901L391 901L391 901L372 901L372 901L352 901L352 901L333 901L333 901L313 901L313 901L293 901L293 901L274 901L274 901L254 901L254 901L235 901L235 901L215 901L215 901L196 901L196 901L176 901L176 901L157 901L157 901L137 901L137 901L117 901L117 901L98 901L98 901L78 901L78 901L59 901L59 901L39 901L39 901L20 901L20 901L0 901Z" fill="#ff9b50"></path><path d="M0 152L20 152L20 127L39 127L39 147L59 147L59 159L78 159L78 111L98 111L98 133L117 133L117 118L137 118L137 165L157 165L157 140L176 140L176 166L196 166L196 128L215 128L215 132L235 132L235 109L254 109L254 154L274 154L274 152L293 152L293 145L313 145L313 165L333 165L333 171L352 171L352 125L372 125L372 110L391 110L391 118L411 118L411 111L430 111L430 132L450 132L450 162L450 901L450 901L430 901L430 901L411 901L411 901L391 901L391 901L372 901L372 901L352 901L352 901L333 901L333 901L313 901L313 901L293 901L293 901L274 901L274 901L254 901L254 901L235 901L235 901L215 901L215 901L196 901L196 901L176 901L176 901L157 901L157 901L137 901L137 901L117 901L117 901L98 901L98 901L78 901L78 901L59 901L59 901L39 901L39 901L20 901L20 901L0 901Z" fill="#fa934c"></path><path d="M0 191L20 191L20 208L39 208L39 197L59 197L59 229L78 229L78 238L98 238L98 237L117 237L117 191L137 191L137 211L157 211L157 201L176 201L176 220L196 220L196 204L215 204L215 233L235 233L235 198L254 198L254 179L274 179L274 229L293 229L293 180L313 180L313 200L333 200L333 197L352 197L352 234L372 234L372 191L391 191L391 235L411 235L411 240L430 240L430 209L450 209L450 195L450 901L450 901L430 901L430 901L411 901L411 901L391 901L391 901L372 901L372 901L352 901L352 901L333 901L333 901L313 901L313 901L293 901L293 901L274 901L274 901L254 901L254 901L235 901L235 901L215 901L215 901L196 901L196 901L176 901L176 901L157 901L157 901L137 901L137 901L117 901L117 901L98 901L98 901L78 901L78 901L59 901L59 901L39 901L39 901L20 901L20 901L0 901Z" fill="#f68a48"></path><path d="M0 272L20 272L20 268L39 268L39 292L59 292L59 254L78 254L78 260L98 260L98 281L117 281L117 257L137 257L137 261L157 261L157 265L176 265L176 246L196 246L196 289L215 289L215 301L235 301L235 303L254 303L254 270L274 270L274 282L293 282L293 287L313 287L313 292L333 292L333 285L352 285L352 261L372 261L372 248L391 248L391 299L411 299L411 258L430 258L430 279L450 279L450 249L450 901L450 901L430 901L430 901L411 901L411 901L391 901L391 901L372 901L372 901L352 901L352 901L333 901L333 901L313 901L313 901L293 901L293 901L274 901L274 901L254 901L254 901L235 901L235 901L215 901L215 901L196 901L196 901L176 901L176 901L157 901L157 901L137 901L137 901L117 901L117 901L98 901L98 901L78 901L78 901L59 901L59 901L39 901L39 901L20 901L20 901L0 901Z" fill="#f18245"></path><path d="M0 358L20 358L20 340L39 340L39 366L59 366L59 315L78 315L78 344L98 344L98 345L117 345L117 329L137 329L137 343L157 343L157 378L176 378L176 333L196 333L196 367L215 367L215 328L235 328L235 362L254 362L254 361L274 361L274 374L293 374L293 321L313 321L313 354L333 354L333 366L352 366L352 360L372 360L372 376L391 376L391 369L411 369L411 314L430 314L430 373L450 373L450 376L450 901L450 901L430 901L430 901L411 901L411 901L391 901L391 901L372 901L372 901L352 901L352 901L333 901L333 901L313 901L313 901L293 901L293 901L274 901L274 901L254 901L254 901L235 901L235 901L215 901L215 901L196 901L196 901L176 901L176 901L157 901L157 901L137 901L137 901L117 901L117 901L98 901L98 901L78 901L78 901L59 901L59 901L39 901L39 901L20 901L20 901L0 901Z" fill="#ec7a42"></path><path d="M0 414L20 414L20 405L39 405L39 438L59 438L59 448L78 448L78 404L98 404L98 441L117 441L117 443L137 443L137 395L157 395L157 427L176 427L176 432L196 432L196 428L215 428L215 424L235 424L235 435L254 435L254 439L274 439L274 430L293 430L293 391L313 391L313 435L333 435L333 417L352 417L352 411L372 411L372 412L391 412L391 446L411 446L411 441L430 441L430 435L450 435L450 432L450 901L450 901L430 901L430 901L411 901L411 901L391 901L391 901L372 901L372 901L352 901L352 901L333 901L333 901L313 901L313 901L293 901L293 901L274 901L274 901L254 901L254 901L235 901L235 901L215 901L215 901L196 901L196 901L176 901L176 901L157 901L157 901L137 901L137 901L117 901L117 901L98 901L98 901L78 901L78 901L59 901L59 901L39 901L39 901L20 901L20 901L0 901Z" fill="#e7713e"></path><path d="M0 509L20 509L20 499L39 499L39 460L59 460L59 458L78 458L78 488L98 488L98 506L117 506L117 451L137 451L137 479L157 479L157 464L176 464L176 517L196 517L196 477L215 477L215 467L235 467L235 455L254 455L254 463L274 463L274 477L293 477L293 455L313 455L313 468L333 468L333 462L352 462L352 509L372 509L372 497L391 497L391 471L411 471L411 499L430 499L430 478L450 478L450 500L450 901L450 901L430 901L430 901L411 901L411 901L391 901L391 901L372 901L372 901L352 901L352 901L333 901L333 901L313 901L313 901L293 901L293 901L274 901L274 901L254 901L254 901L235 901L235 901L215 901L215 901L196 901L196 901L176 901L176 901L157 901L157 901L137 901L137 901L117 901L117 901L98 901L98 901L78 901L78 901L59 901L59 901L39 901L39 901L20 901L20 901L0 901Z" fill="#e1693c"></path><path d="M0 546L20 546L20 545L39 545L39 573L59 573L59 523L78 523L78 561L98 561L98 556L117 556L117 540L137 540L137 555L157 555L157 585L176 585L176 544L196 544L196 525L215 525L215 547L235 547L235 531L254 531L254 534L274 534L274 536L293 536L293 535L313 535L313 527L333 527L333 567L352 567L352 551L372 551L372 581L391 581L391 551L411 551L411 544L430 544L430 556L450 556L450 550L450 901L450 901L430 901L430 901L411 901L411 901L391 901L391 901L372 901L372 901L352 901L352 901L333 901L333 901L313 901L313 901L293 901L293 901L274 901L274 901L254 901L254 901L235 901L235 901L215 901L215 901L196 901L196 901L176 901L176 901L157 901L157 901L137 901L137 901L117 901L117 901L98 901L98 901L78 901L78 901L59 901L59 901L39 901L39 901L20 901L20 901L0 901Z" fill="#dc6039"></path><path d="M0 634L20 634L20 646L39 646L39 622L59 622L59 642L78 642L78 600L98 600L98 598L117 598L117 656L137 656L137 616L157 616L157 645L176 645L176 656L196 656L196 644L215 644L215 613L235 613L235 602L254 602L254 593L274 593L274 610L293 610L293 594L313 594L313 629L333 629L333 646L352 646L352 642L372 642L372 597L391 597L391 604L411 604L411 602L430 602L430 591L450 591L450 645L450 901L450 901L430 901L430 901L411 901L411 901L391 901L391 901L372 901L372 901L352 901L352 901L333 901L333 901L313 901L313 901L293 901L293 901L274 901L274 901L254 901L254 901L235 901L235 901L215 901L215 901L196 901L196 901L176 901L176 901L157 901L157 901L137 901L137 901L117 901L117 901L98 901L98 901L78 901L78 901L59 901L59 901L39 901L39 901L20 901L20 901L0 901Z" fill="#d75836"></path><path d="M0 662L20 662L20 699L39 699L39 689L59 689L59 686L78 686L78 663L98 663L98 724L117 724L117 683L137 683L137 679L157 679L157 678L176 678L176 694L196 694L196 657L215 657L215 681L235 681L235 716L254 716L254 689L274 689L274 663L293 663L293 663L313 663L313 687L333 687L333 662L352 662L352 680L372 680L372 677L391 677L391 709L411 709L411 685L430 685L430 677L450 677L450 699L450 901L450 901L430 901L430 901L411 901L411 901L391 901L391 901L372 901L372 901L352 901L352 901L333 901L333 901L313 901L313 901L293 901L293 901L274 901L274 901L254 901L254 901L235 901L235 901L215 901L215 901L196 901L196 901L176 901L176 901L157 901L157 901L137 901L137 901L117 901L117 901L98 901L98 901L78 901L78 901L59 901L59 901L39 901L39 901L20 901L20 901L0 901Z" fill="#d14f34"></path><path d="M0 752L20 752L20 736L39 736L39 782L59 782L59 756L78 756L78 747L98 747L98 778L117 778L117 738L137 738L137 742L157 742L157 781L176 781L176 743L196 743L196 793L215 793L215 771L235 771L235 783L254 783L254 739L274 739L274 789L293 789L293 772L313 772L313 756L333 756L333 787L352 787L352 744L372 744L372 739L391 739L391 776L411 776L411 786L430 786L430 755L450 755L450 745L450 901L450 901L430 901L430 901L411 901L411 901L391 901L391 901L372 901L372 901L352 901L352 901L333 901L333 901L313 901L313 901L293 901L293 901L274 901L274 901L254 901L254 901L235 901L235 901L215 901L215 901L196 901L196 901L176 901L176 901L157 901L157 901L137 901L137 901L117 901L117 901L98 901L98 901L78 901L78 901L59 901L59 901L39 901L39 901L20 901L20 901L0 901Z" fill="#cc4631"></path><path d="M0 813L20 813L20 831L39 831L39 842L59 842L59 824L78 824L78 856L98 856L98 839L117 839L117 807L137 807L137 864L157 864L157 853L176 853L176 811L196 811L196 855L215 855L215 835L235 835L235 826L254 826L254 858L274 858L274 807L293 807L293 849L313 849L313 815L333 815L333 800L352 800L352 823L372 823L372 827L391 827L391 862L411 862L411 842L430 842L430 821L450 821L450 849L450 901L450 901L430 901L430 901L411 901L411 901L391 901L391 901L372 901L372 901L352 901L352 901L333 901L333 901L313 901L313 901L293 901L293 901L274 901L274 901L254 901L254 901L235 901L235 901L215 901L215 901L196 901L196 901L176 901L176 901L157 901L157 901L137 901L137 901L117 901L117 901L98 901L98 901L78 901L78 901L59 901L59 901L39 901L39 901L20 901L20 901L0 901Z" fill="#c63d2f"></path></svg>